<svg xmlns="http://www.w3.org/2000/svg" xmlns:xlink="http://www.w3.org/1999/xlink" viewBox="0 0 1455.644 1695.7661"><defs><style>.cls-1{fill:none;}.cls-2{clip-path:url(#clip-path);}.cls-3{opacity:0.15;}.cls-4{fill:#e21f33;}</style><clipPath id="clip-path" transform="translate(461.4151 252.8682)"><rect class="cls-1" width="1018.5107" height="998.4025"/></clipPath></defs><g id="Layer_2" data-name="Layer 2"><g id="designs"><g id="phone-page"><g id="phone-pattern"><g class="cls-2"><g class="cls-3"><path class="cls-4" d="M27.4171,1062.6147a15.0446,15.0446,0,0,0-4.2822,20.8209l37.2121,56.482A15.0447,15.0447,0,0,0,81.1679,1144.2l18.8273-12.4041,10.3367,15.6895a3.74,3.74,0,0,0,3.5735,1.6674,3.8024,3.8024,0,0,0,3.101-2.4649l12.2692-34.1828,27.2016-17.9213a15.0446,15.0446,0,0,0,4.2822-20.8209l-37.212-56.482a15.0449,15.0449,0,0,0-20.821-4.2822Z" transform="translate(461.4151 252.8682)"/><path class="cls-4" d="M294.28,886.7971a15.0446,15.0446,0,0,0-4.2822,20.8209L327.21,964.1a15.0446,15.0446,0,0,0,20.8209,4.2822l18.8273-12.404,10.3367,15.6895a3.74,3.74,0,0,0,3.5735,1.6674,3.8024,3.8024,0,0,0,3.101-2.4649l12.2692-34.1828L423.34,918.7661a15.0446,15.0446,0,0,0,4.2822-20.8209L390.41,841.4632A15.0448,15.0448,0,0,0,369.59,837.181Z" transform="translate(461.4151 252.8682)"/><path class="cls-4" d="M560.176,711.6168a15.0448,15.0448,0,0,0-4.2822,20.8209l37.2121,56.482a15.0448,15.0448,0,0,0,20.8209,4.2822l18.8274-12.404,10.3366,15.6894a3.74,3.74,0,0,0,3.5736,1.6675,3.8026,3.8026,0,0,0,3.1009-2.4649l12.2693-34.1829,27.2016-17.9212a15.0448,15.0448,0,0,0,4.2822-20.8209l-37.2121-56.482a15.0446,15.0446,0,0,0-20.8209-4.2822Z" transform="translate(461.4151 252.8682)"/><path class="cls-4" d="M858.4107,515.1306a15.0446,15.0446,0,0,0-4.2822,20.8209l37.2121,56.482a15.0446,15.0446,0,0,0,20.8209,4.2822l18.8273-12.404,10.3367,15.6894a3.74,3.74,0,0,0,3.5735,1.6675A3.8024,3.8024,0,0,0,948,599.2037l12.2692-34.1829L987.4708,547.1a15.0446,15.0446,0,0,0,4.2822-20.8209l-37.212-56.482a15.0447,15.0447,0,0,0-20.821-4.2822Z" transform="translate(461.4151 252.8682)"/><path class="cls-4" d="M7.7786,1356.3333a15.0447,15.0447,0,0,0-4.2823,20.8209l37.2121,56.482a15.0446,15.0446,0,0,0,20.8209,4.2822l18.8274-12.404,10.3367,15.6894a3.74,3.74,0,0,0,3.5735,1.6675,3.8027,3.8027,0,0,0,3.101-2.4649l12.2692-34.1829,27.2016-17.9212a15.0448,15.0448,0,0,0,4.2822-20.8209l-37.2121-56.482a15.0446,15.0446,0,0,0-20.8209-4.2822Z" transform="translate(461.4151 252.8682)"/><path class="cls-4" d="M274.6416,1180.5157a15.0448,15.0448,0,0,0-4.2822,20.8209l37.2121,56.482a15.0446,15.0446,0,0,0,20.8209,4.2822l18.8274-12.404,10.3366,15.6894a3.74,3.74,0,0,0,3.5736,1.6675,3.8024,3.8024,0,0,0,3.1009-2.4649L376.5,1230.4059l27.2016-17.9212a15.0448,15.0448,0,0,0,4.2822-20.8209l-37.2121-56.482A15.0446,15.0446,0,0,0,349.951,1130.9Z" transform="translate(461.4151 252.8682)"/><path class="cls-4" d="M540.5375,1005.3353a15.0446,15.0446,0,0,0-4.2822,20.8209l37.2121,56.482a15.0446,15.0446,0,0,0,20.8209,4.2822l18.8273-12.404,10.3367,15.6895a3.74,3.74,0,0,0,3.5735,1.6674,3.8024,3.8024,0,0,0,3.101-2.4649l12.2692-34.1828,27.2016-17.9213a15.0446,15.0446,0,0,0,4.2822-20.8209l-37.2121-56.482a15.0446,15.0446,0,0,0-20.8209-4.2822Z" transform="translate(461.4151 252.8682)"/><path class="cls-4" d="M838.7721,808.8492A15.0448,15.0448,0,0,0,834.49,829.67l37.2121,56.482a15.0448,15.0448,0,0,0,20.8209,4.2822L911.35,878.03,921.687,893.72a3.74,3.74,0,0,0,3.5735,1.6674,3.8026,3.8026,0,0,0,3.101-2.4648l12.2692-34.1829,27.2016-17.9212a15.0448,15.0448,0,0,0,4.2822-20.8209l-37.2121-56.4821a15.0448,15.0448,0,0,0-20.8209-4.2822Z" transform="translate(461.4151 252.8682)"/><path class="cls-4" d="M-234.9643,987.8884a15.0446,15.0446,0,0,0-4.2822,20.8209l37.2121,56.482a15.0448,15.0448,0,0,0,20.8209,4.2822l18.8273-12.404,10.3367,15.6894a3.74,3.74,0,0,0,3.5735,1.6675,3.8027,3.8027,0,0,0,3.101-2.4649l12.2693-34.1829,27.2015-17.9212a15.0446,15.0446,0,0,0,4.2822-20.8209l-37.212-56.482a15.0446,15.0446,0,0,0-20.8209-4.2822Z" transform="translate(461.4151 252.8682)"/><path class="cls-4" d="M31.8988,812.0708a15.0446,15.0446,0,0,0-4.2822,20.8209l37.2121,56.482A15.0448,15.0448,0,0,0,85.65,893.6559l18.8273-12.404,10.3367,15.6894a3.74,3.74,0,0,0,3.5735,1.6674,3.8025,3.8025,0,0,0,3.101-2.4648l12.2692-34.1829L160.9589,844.04a15.0446,15.0446,0,0,0,4.2822-20.8209l-37.2121-56.482a15.0446,15.0446,0,0,0-20.8209-4.2822Z" transform="translate(461.4151 252.8682)"/><path class="cls-4" d="M297.7946,636.89a15.0448,15.0448,0,0,0-4.2822,20.8209l37.2121,56.482a15.0446,15.0446,0,0,0,20.8209,4.2822l18.8274-12.404L380.71,721.7609a3.74,3.74,0,0,0,3.5735,1.6675,3.8024,3.8024,0,0,0,3.1009-2.4649l12.2693-34.1829,27.2016-17.9212a15.0448,15.0448,0,0,0,4.2822-20.8209l-37.2121-56.482a15.0446,15.0446,0,0,0-20.8209-4.2822Z" transform="translate(461.4151 252.8682)"/><path class="cls-4" d="M596.0293,440.4042a15.0446,15.0446,0,0,0-4.2822,20.8209l37.2121,56.482a15.0447,15.0447,0,0,0,20.8209,4.2823l18.8273-12.4041,10.3367,15.69a3.74,3.74,0,0,0,3.5735,1.6674,3.8024,3.8024,0,0,0,3.101-2.4649l12.2693-34.1828,27.2015-17.9213a15.0446,15.0446,0,0,0,4.2822-20.8209L692.16,395.07a15.0449,15.0449,0,0,0-20.821-4.2822Z" transform="translate(461.4151 252.8682)"/><path class="cls-4" d="M-192.2755,421.4343a15.0446,15.0446,0,0,0-4.2822,20.8209l37.212,56.482a15.0447,15.0447,0,0,0,20.821,4.2822l18.8273-12.404,10.3367,15.6894a3.74,3.74,0,0,0,3.5735,1.6675,3.8025,3.8025,0,0,0,3.101-2.4649l12.2692-34.1828,27.2016-17.9213a15.0446,15.0446,0,0,0,4.2822-20.8209L-96.1453,376.1a15.0446,15.0446,0,0,0-20.8209-4.2822Z" transform="translate(461.4151 252.8682)"/><path class="cls-4" d="M74.5875,245.6167a15.0448,15.0448,0,0,0-4.2822,20.8209l37.2121,56.482a15.0446,15.0446,0,0,0,20.8209,4.2822l18.8274-12.404,10.3367,15.6894a3.74,3.74,0,0,0,3.5735,1.6675,3.8023,3.8023,0,0,0,3.1009-2.4649l12.2693-34.1829,27.2016-17.9212a15.0448,15.0448,0,0,0,4.2822-20.8209l-37.2121-56.482a15.0446,15.0446,0,0,0-20.8209-4.2822Z" transform="translate(461.4151 252.8682)"/><path class="cls-4" d="M340.4834,70.4363a15.0446,15.0446,0,0,0-4.2822,20.8209l37.2121,56.4821a15.0448,15.0448,0,0,0,20.8209,4.2822l18.8273-12.4041,10.3367,15.69a3.74,3.74,0,0,0,3.5735,1.6674,3.8024,3.8024,0,0,0,3.101-2.4649l12.2692-34.1828,27.2016-17.9213a15.0446,15.0446,0,0,0,4.2822-20.8209l-37.2121-56.482A15.0448,15.0448,0,0,0,415.7927,20.82Z" transform="translate(461.4151 252.8682)"/><path class="cls-4" d="M638.7181-126.05a15.0446,15.0446,0,0,0-4.2822,20.8209l37.212,56.482a15.0446,15.0446,0,0,0,20.8209,4.2822l18.8274-12.404,10.3367,15.6894a3.74,3.74,0,0,0,3.5735,1.6675,3.8027,3.8027,0,0,0,3.101-2.4649L740.5766-76.16l27.2016-17.9212a15.0446,15.0446,0,0,0,4.2822-20.8209l-37.2121-56.482a15.0446,15.0446,0,0,0-20.8209-4.2822Z" transform="translate(461.4151 252.8682)"/><path class="cls-4" d="M-211.9141,715.1529a15.0446,15.0446,0,0,0-4.2822,20.8209l37.2121,56.482a15.0448,15.0448,0,0,0,20.8209,4.2822l18.8273-12.4041,10.3367,15.69a3.74,3.74,0,0,0,3.5735,1.6674,3.8025,3.8025,0,0,0,3.101-2.4648l12.2693-34.1829,27.2015-17.9212a15.0446,15.0446,0,0,0,4.2822-20.8209l-37.212-56.4821a15.0448,15.0448,0,0,0-20.8209-4.2822Z" transform="translate(461.4151 252.8682)"/><path class="cls-4" d="M54.949,539.3352a15.0447,15.0447,0,0,0-4.2822,20.821l37.2121,56.482A15.0448,15.0448,0,0,0,108.7,620.92l18.8273-12.4041,10.3367,15.6895a3.74,3.74,0,0,0,3.5735,1.6674,3.8025,3.8025,0,0,0,3.101-2.4648l12.2692-34.1829,27.2016-17.9212a15.0446,15.0446,0,0,0,4.2822-20.8209l-37.2121-56.4821a15.0448,15.0448,0,0,0-20.8209-4.2822Z" transform="translate(461.4151 252.8682)"/><path class="cls-4" d="M320.8448,364.1549a15.0448,15.0448,0,0,0-4.2822,20.8209l37.2121,56.482a15.0446,15.0446,0,0,0,20.8209,4.2822l18.8274-12.404L403.76,449.0254a3.74,3.74,0,0,0,3.5735,1.6675,3.8024,3.8024,0,0,0,3.1009-2.4649l12.2693-34.1829,27.2016-17.9212a15.0448,15.0448,0,0,0,4.2822-20.8209l-37.2121-56.482a15.0446,15.0446,0,0,0-20.8209-4.2822Z" transform="translate(461.4151 252.8682)"/><path class="cls-4" d="M619.08,167.6687a15.0446,15.0446,0,0,0-4.2822,20.8209l37.2121,56.482a15.0446,15.0446,0,0,0,20.8209,4.2822l18.8273-12.404,10.3367,15.69a3.74,3.74,0,0,0,3.5735,1.6674,3.8024,3.8024,0,0,0,3.101-2.4649l12.2693-34.1828L748.14,199.6377a15.0446,15.0446,0,0,0,4.2822-20.8209l-37.212-56.482a15.0446,15.0446,0,0,0-20.8209-4.2822Z" transform="translate(461.4151 252.8682)"/><path class="cls-4" d="M-454.6569,346.7079a15.0446,15.0446,0,0,0-4.2822,20.8209l37.212,56.482a15.0448,15.0448,0,0,0,20.821,4.2823l18.8273-12.4041,10.3367,15.69a3.74,3.74,0,0,0,3.5735,1.6674,3.8025,3.8025,0,0,0,3.101-2.4649l12.2692-34.1828,27.2016-17.9213a15.0446,15.0446,0,0,0,4.2822-20.8209l-37.2121-56.482a15.0448,15.0448,0,0,0-20.8209-4.2822Z" transform="translate(461.4151 252.8682)"/><path class="cls-4" d="M-187.7938,170.89a15.0447,15.0447,0,0,0-4.2823,20.8209l37.2121,56.482a15.0447,15.0447,0,0,0,20.8209,4.2823l18.8274-12.4041,10.3367,15.6895a3.74,3.74,0,0,0,3.5735,1.6674,3.8025,3.8025,0,0,0,3.101-2.4649l12.2692-34.1828,27.2016-17.9213a15.0448,15.0448,0,0,0,4.2822-20.8209l-37.2121-56.482a15.0448,15.0448,0,0,0-20.8209-4.2822Z" transform="translate(461.4151 252.8682)"/><path class="cls-4" d="M78.102-4.29A15.0446,15.0446,0,0,0,73.82,16.5309l37.2121,56.482a15.0447,15.0447,0,0,0,20.8209,4.2822L150.68,64.8911l10.3367,15.6894A3.74,3.74,0,0,0,164.59,82.248a3.8027,3.8027,0,0,0,3.101-2.4649L179.9606,45.6,207.1621,27.679a15.0446,15.0446,0,0,0,4.2822-20.8209l-37.212-56.482a15.0447,15.0447,0,0,0-20.821-4.2822Z" transform="translate(461.4151 252.8682)"/><path class="cls-4" d="M376.3367-200.7762a15.0446,15.0446,0,0,0-4.2822,20.8209l37.212,56.482a15.0447,15.0447,0,0,0,20.821,4.2822l18.8273-12.404,10.3367,15.6894a3.74,3.74,0,0,0,3.5735,1.6675,3.8025,3.8025,0,0,0,3.101-2.4649l12.2692-34.1828,27.2016-17.9213a15.0446,15.0446,0,0,0,4.2822-20.8209L472.4669-246.11a15.0446,15.0446,0,0,0-20.8209-4.2822Z" transform="translate(461.4151 252.8682)"/></g></g></g></g></g></g></svg>