<svg xmlns="http://www.w3.org/2000/svg" xmlns:xlink="http://www.w3.org/1999/xlink" viewBox="0 0 10325.67 9646.59"><defs><style>.cls-1{fill:none;}.cls-2{opacity:0.18;}.cls-3{clip-path:url(#clip-path);}.cls-4{fill:#fff;}</style><clipPath id="clip-path" transform="translate(1346.61 2464.43)"><rect class="cls-1" width="7573.78" height="4659.08"/></clipPath></defs><g id="Layer_2" data-name="Layer 2"><g id="designs"><g id="kifflom-pattern" class="cls-2"><g class="cls-3"><polygon class="cls-4" points="1961.41 6407.41 2223.55 6290.99 2268.3 6390.86 2191.22 6350.53 2088.59 6394.98 2148.74 6524.16 2228.24 6488.86 2256.36 6430.06 2317.25 6563.43 2250.28 6525.39 2164.58 6564.58 2222.84 6694.6 2340.19 6642.48 2350.2 6573.65 2392.41 6667.86 2241.94 6734.69 2324.16 6920.72 2400.34 6928.69 2229.05 7004.76 2269.79 6943.74 2109.58 6581.1 2006.42 6626.91 2003.89 6694.69 1945.21 6563.72 1990.81 6592.05 2095.43 6544.45 2037.59 6415.37 1961.41 6407.41"/><polygon class="cls-4" points="2573.78 6135.45 2835.93 6019.02 2880.68 6118.9 2803.6 6078.57 2700.97 6123.02 2761.12 6252.2 2840.62 6216.89 2868.73 6158.09 2929.63 6291.46 2862.66 6253.42 2776.96 6292.61 2835.22 6422.63 2952.57 6370.52 2962.57 6301.68 3004.79 6395.9 2854.32 6462.73 2936.53 6648.76 3012.72 6656.72 2841.43 6732.79 2882.17 6671.77 2721.95 6309.13 2618.8 6354.94 2616.26 6422.72 2557.59 6291.76 2603.18 6320.08 2707.81 6272.49 2649.97 6143.41 2573.78 6135.45"/><polygon class="cls-4" points="2623.69 7130.4 2885.83 7013.98 2930.58 7113.85 2853.51 7073.52 2750.88 7117.97 2811.03 7247.15 2890.52 7211.85 2918.64 7153.04 2979.53 7286.41 2912.56 7248.38 2826.86 7287.56 2885.12 7417.59 3002.47 7365.47 3012.48 7296.64 3054.69 7390.85 2904.22 7457.68 2986.44 7643.71 3062.63 7651.67 2891.34 7727.75 2932.07 7666.73 2771.86 7304.09 2668.71 7349.9 2666.17 7417.68 2607.49 7286.71 2653.09 7315.04 2757.71 7267.44 2699.88 7138.36 2623.69 7130.4"/><polygon class="cls-4" points="2073.75 7374.63 2335.89 7258.21 2380.64 7358.09 2303.57 7317.76 2200.94 7362.2 2261.09 7491.39 2340.59 7456.08 2368.7 7397.28 2429.59 7530.65 2362.63 7492.61 2276.93 7531.8 2335.19 7661.82 2452.53 7609.7 2462.54 7540.87 2504.76 7635.09 2354.28 7701.91 2436.5 7887.94 2512.69 7895.91 2341.4 7971.98 2382.14 7910.96 2221.92 7548.32 2118.77 7594.13 2116.23 7661.91 2057.55 7530.94 2103.15 7559.27 2207.78 7511.68 2149.94 7382.6 2073.75 7374.63"/><polygon class="cls-4" points="3333.54 6815.15 3595.68 6698.73 3640.43 6798.6 3563.35 6758.27 3460.72 6802.72 3520.88 6931.9 3600.37 6896.6 3628.49 6837.79 3689.38 6971.16 3622.41 6933.12 3536.71 6972.31 3594.97 7102.33 3712.32 7050.22 3722.32 6981.38 3764.54 7075.6 3614.07 7142.43 3696.29 7328.46 3772.47 7336.42 3601.18 7412.49 3641.92 7351.47 3481.71 6988.83 3378.55 7034.64 3376.02 7102.42 3317.34 6971.46 3362.93 6999.78 3467.56 6952.19 3409.72 6823.11 3333.54 6815.15"/><polygon class="cls-4" points="1390.45 6660.98 1652.6 6544.56 1697.34 6644.43 1620.27 6604.1 1517.64 6648.55 1577.79 6777.73 1657.29 6742.43 1685.4 6683.62 1746.3 6816.99 1679.33 6778.95 1593.63 6818.14 1651.89 6948.17 1769.24 6896.05 1779.24 6827.21 1821.46 6921.43 1670.99 6988.26 1753.2 7174.29 1829.39 7182.25 1658.1 7258.33 1698.84 7197.31 1538.62 6834.66 1435.47 6880.48 1432.93 6948.25 1374.25 6817.29 1419.85 6845.61 1524.47 6798.02 1466.64 6668.94 1390.45 6660.98"/><polygon class="cls-4" points="2688.56 8118.71 2950.7 8002.29 2995.45 8102.16 2918.38 8061.83 2815.75 8106.28 2875.9 8235.46 2955.39 8200.16 2983.51 8141.35 3044.4 8274.72 2977.43 8236.68 2891.74 8275.87 2949.99 8405.89 3067.34 8353.78 3077.35 8284.94 3119.56 8379.16 2969.09 8445.99 3051.31 8632.02 3127.5 8639.98 2956.2 8716.05 2996.95 8655.03 2836.73 8292.39 2733.58 8338.2 2731.04 8405.98 2672.36 8275.02 2717.96 8303.34 2822.58 8255.75 2764.75 8126.67 2688.56 8118.71"/><polygon class="cls-4" points="3300.94 7846.74 3563.08 7730.32 3607.83 7830.19 3530.75 7789.86 3428.13 7834.31 3488.28 7963.49 3567.77 7928.19 3595.89 7869.39 3656.78 8002.76 3589.81 7964.72 3504.11 8003.91 3562.37 8133.93 3679.72 8081.81 3689.72 8012.98 3731.94 8107.2 3581.47 8174.02 3663.69 8360.05 3739.87 8368.02 3568.58 8444.09 3609.32 8383.07 3449.11 8020.43 3345.95 8066.24 3343.42 8134.02 3284.74 8003.05 3330.33 8031.38 3434.96 7983.78 3377.12 7854.7 3300.94 7846.74"/><polygon class="cls-4" points="3279.74 8805.01 3541.88 8688.59 3586.63 8788.46 3509.56 8748.13 3406.93 8792.58 3467.08 8921.76 3546.57 8886.46 3574.69 8827.65 3635.58 8961.02 3568.61 8922.99 3482.91 8962.17 3541.17 9092.2 3658.52 9040.08 3668.53 8971.24 3710.74 9065.46 3560.27 9132.29 3642.49 9318.32 3718.68 9326.28 3547.38 9402.36 3588.12 9341.33 3427.91 8978.69 3324.76 9024.51 3322.22 9092.28 3263.54 8961.32 3309.14 8989.65 3413.76 8942.05 3355.93 8812.97 3279.74 8805.01"/><polygon class="cls-4" points="2729.8 9049.24 2991.94 8932.82 3036.69 9032.69 2959.62 8992.36 2856.99 9036.81 2917.14 9166 2996.64 9130.69 3024.75 9071.89 3085.64 9205.26 3018.68 9167.22 2932.98 9206.41 2991.24 9336.43 3108.59 9284.31 3118.59 9215.48 3160.81 9309.7 3010.34 9376.52 3092.55 9562.56 3168.74 9570.52 2997.45 9646.59 3038.19 9585.57 2877.97 9222.93 2774.82 9268.74 2772.28 9336.52 2713.6 9205.55 2759.2 9233.88 2863.82 9186.28 2805.99 9057.2 2729.8 9049.24"/><polygon class="cls-4" points="3989.59 8489.76 4251.73 8373.33 4296.48 8473.21 4219.4 8432.88 4116.77 8477.33 4176.92 8606.51 4256.42 8571.2 4284.54 8512.4 4345.43 8645.77 4278.46 8607.73 4192.76 8646.92 4251.02 8776.94 4368.37 8724.83 4378.37 8655.99 4420.59 8750.21 4270.12 8817.04 4352.34 9003.07 4428.52 9011.03 4257.23 9087.1 4297.97 9026.08 4137.76 8663.44 4034.6 8709.25 4032.07 8777.03 3973.39 8646.07 4018.98 8674.39 4123.61 8626.8 4065.77 8497.72 3989.59 8489.76"/><polygon class="cls-4" points="2117.61 8372.28 2379.75 8255.85 2424.5 8355.73 2347.42 8315.4 2244.79 8359.85 2304.94 8489.03 2384.44 8453.72 2412.55 8394.92 2473.45 8528.29 2406.48 8490.25 2320.78 8529.44 2379.04 8659.46 2496.39 8607.35 2506.39 8538.51 2548.61 8632.73 2398.14 8699.56 2480.36 8885.59 2556.54 8893.55 2385.25 8969.62 2425.99 8908.6 2265.78 8545.96 2162.62 8591.77 2160.09 8659.55 2101.41 8528.59 2147 8556.91 2251.63 8509.32 2193.79 8380.24 2117.61 8372.28"/><polygon class="cls-4" points="4082.06 5468.8 4344.2 5352.38 4388.95 5452.25 4311.88 5411.92 4209.25 5456.37 4269.4 5585.55 4348.9 5550.25 4377.01 5491.44 4437.9 5624.81 4370.94 5586.77 4285.24 5625.96 4343.5 5755.98 4460.85 5703.87 4470.85 5635.03 4513.07 5729.25 4362.6 5796.08 4444.81 5982.11 4521 5990.07 4349.71 6066.15 4390.45 6005.13 4230.23 5642.48 4127.08 5688.3 4124.54 5756.07 4065.86 5625.11 4111.46 5653.44 4216.08 5605.84 4158.25 5476.76 4082.06 5468.8"/><polygon class="cls-4" points="4694.44 5196.83 4956.58 5080.41 5001.33 5180.28 4924.26 5139.95 4821.63 5184.4 4881.78 5313.59 4961.27 5278.28 4989.39 5219.48 5050.28 5352.85 4983.31 5314.81 4897.62 5354 4955.87 5484.02 5073.22 5431.9 5083.23 5363.07 5125.44 5457.29 4974.97 5524.11 5057.19 5710.15 5133.38 5718.11 4962.09 5794.18 5002.82 5733.16 4842.61 5370.52 4739.46 5416.33 4736.92 5484.11 4678.24 5353.15 4723.84 5381.47 4828.46 5333.88 4770.63 5204.8 4694.44 5196.83"/><polygon class="cls-4" points="4666.51 6226.35 4928.65 6109.93 4973.4 6209.81 4896.33 6169.48 4793.7 6213.93 4853.85 6343.11 4933.34 6307.8 4961.46 6249 5022.35 6382.37 4955.38 6344.33 4869.69 6383.52 4927.94 6513.54 5045.29 6461.43 5055.3 6392.59 5097.51 6486.81 4947.04 6553.64 5029.26 6739.67 5105.45 6747.63 4934.16 6823.7 4974.9 6762.68 4814.68 6400.04 4711.53 6445.85 4708.99 6513.63 4650.31 6382.67 4695.91 6410.99 4800.53 6363.4 4742.7 6234.32 4666.51 6226.35"/><polygon class="cls-4" points="4038.74 6505.16 4300.88 6388.73 4345.63 6488.61 4268.56 6448.28 4165.93 6492.73 4226.08 6621.91 4305.57 6586.6 4333.69 6527.8 4394.58 6661.17 4327.61 6623.13 4241.91 6662.32 4300.17 6792.34 4417.52 6740.23 4427.53 6671.39 4469.74 6765.61 4319.27 6832.44 4401.49 7018.47 4477.68 7026.43 4306.39 7102.5 4347.13 7041.48 4186.91 6678.84 4083.76 6724.65 4081.22 6792.43 4022.54 6661.47 4068.14 6689.79 4172.76 6642.2 4114.93 6513.12 4038.74 6505.16"/><polygon class="cls-4" points="5298.52 5945.67 5560.66 5829.25 5605.41 5929.12 5528.34 5888.79 5425.71 5933.24 5485.86 6062.42 5565.35 6027.12 5593.47 5968.31 5654.36 6101.68 5587.4 6063.65 5501.7 6102.83 5559.96 6232.86 5677.31 6180.74 5687.31 6111.9 5729.53 6206.12 5579.06 6272.95 5661.27 6458.98 5737.46 6466.94 5566.17 6543.02 5606.91 6482 5446.69 6119.35 5343.54 6165.17 5341 6232.94 5282.32 6101.98 5327.92 6130.31 5432.55 6082.71 5374.71 5953.63 5298.52 5945.67"/><polygon class="cls-4" points="3355.44 5791.5 3617.58 5675.08 3662.33 5774.95 3585.26 5734.62 3482.63 5779.07 3542.78 5908.25 3622.27 5872.95 3650.39 5814.15 3711.28 5947.52 3644.31 5909.48 3558.62 5948.67 3616.87 6078.69 3734.22 6026.57 3744.23 5957.74 3786.44 6051.96 3635.97 6118.78 3718.19 6304.81 3794.38 6312.78 3623.09 6388.85 3663.82 6327.83 3503.61 5965.19 3400.46 6011 3397.92 6078.78 3339.24 5947.81 3384.84 5976.14 3489.46 5928.54 3431.63 5799.46 3355.44 5791.5"/><polygon class="cls-4" points="4769.66 7197.66 5031.8 7081.24 5076.55 7181.11 4999.48 7140.78 4896.85 7185.23 4957 7314.41 5036.49 7279.11 5064.61 7220.31 5125.5 7353.68 5058.53 7315.64 4972.84 7354.83 5031.09 7484.85 5148.44 7432.73 5158.45 7363.9 5200.66 7458.12 5050.19 7524.94 5132.41 7710.97 5208.6 7718.94 5037.31 7795.01 5078.05 7733.99 4917.83 7371.35 4814.68 7417.16 4812.14 7484.94 4753.46 7353.97 4799.06 7382.3 4903.68 7334.7 4845.85 7205.62 4769.66 7197.66"/><polygon class="cls-4" points="5382.04 6925.7 5644.18 6809.28 5688.93 6909.15 5611.85 6868.82 5509.23 6913.27 5569.38 7042.45 5648.87 7007.15 5676.99 6948.34 5737.88 7081.71 5670.91 7043.67 5585.21 7082.86 5643.47 7212.88 5760.82 7160.77 5770.83 7091.93 5813.04 7186.15 5662.57 7252.98 5744.79 7439.01 5820.98 7446.97 5649.68 7523.04 5690.42 7462.02 5530.21 7099.38 5427.06 7145.19 5424.52 7212.97 5365.84 7082.01 5411.44 7110.33 5516.06 7062.74 5458.22 6933.66 5382.04 6925.7"/><polygon class="cls-4" points="5360.84 7883.96 5622.98 7767.54 5667.73 7867.41 5590.66 7827.09 5488.03 7871.53 5548.18 8000.72 5627.67 7965.41 5655.79 7906.61 5716.68 8039.98 5649.71 8001.94 5564.02 8041.13 5622.27 8171.15 5739.62 8119.03 5749.63 8050.2 5791.84 8144.42 5641.37 8211.24 5723.59 8397.27 5799.78 8405.24 5628.48 8481.31 5669.23 8420.29 5509.01 8057.65 5405.86 8103.46 5403.32 8171.24 5344.64 8040.27 5390.24 8068.6 5494.86 8021.01 5437.03 7891.93 5360.84 7883.96"/><polygon class="cls-4" points="4733.07 8162.77 4995.21 8046.34 5039.96 8146.22 4962.89 8105.89 4860.26 8150.34 4920.41 8279.52 4999.9 8244.21 5028.02 8185.41 5088.91 8318.78 5021.94 8280.74 4936.24 8319.93 4994.5 8449.95 5111.85 8397.84 5121.86 8329 5164.07 8423.22 5013.6 8490.05 5095.82 8676.08 5172.01 8684.04 5000.72 8760.11 5041.45 8699.09 4881.24 8336.45 4778.09 8382.26 4775.55 8450.04 4716.87 8319.08 4762.47 8347.4 4867.09 8299.81 4809.26 8170.73 4733.07 8162.77"/><polygon class="cls-4" points="5992.85 7603.28 6254.99 7486.86 6299.74 7586.73 6222.67 7546.4 6120.04 7590.85 6180.19 7720.03 6259.69 7684.73 6287.8 7625.92 6348.69 7759.29 6281.73 7721.25 6196.03 7760.44 6254.29 7890.47 6371.64 7838.35 6381.64 7769.51 6423.86 7863.73 6273.39 7930.56 6355.6 8116.59 6431.79 8124.55 6260.5 8200.63 6301.24 8139.6 6141.02 7776.96 6037.87 7822.78 6035.33 7890.55 5976.65 7759.59 6022.25 7787.91 6126.87 7740.32 6069.04 7611.24 5992.85 7603.28"/><polygon class="cls-4" points="4043.04 7520.36 4305.18 7403.94 4349.93 7503.82 4272.85 7463.49 4170.23 7507.94 4230.38 7637.12 4309.87 7601.81 4337.99 7543.01 4398.88 7676.38 4331.91 7638.34 4246.21 7677.53 4304.47 7807.55 4421.82 7755.44 4431.83 7686.6 4474.04 7780.82 4323.57 7847.65 4405.79 8033.68 4481.98 8041.64 4310.68 8117.71 4351.42 8056.69 4191.21 7694.05 4088.05 7739.86 4085.52 7807.64 4026.84 7676.68 4072.43 7705 4177.06 7657.41 4119.22 7528.33 4043.04 7520.36"/><polygon class="cls-4" points="5855.29 4678.09 6117.43 4561.66 6162.18 4661.54 6085.11 4621.21 5982.48 4665.66 6042.63 4794.84 6122.12 4759.53 6150.24 4700.73 6211.13 4834.1 6144.16 4796.06 6058.46 4835.25 6116.72 4965.27 6234.07 4913.16 6244.08 4844.32 6286.29 4938.54 6135.82 5005.37 6218.04 5191.4 6294.23 5199.36 6122.93 5275.43 6163.67 5214.41 6003.46 4851.77 5900.31 4897.58 5897.77 4965.36 5839.09 4834.4 5884.69 4862.72 5989.31 4815.13 5931.48 4686.05 5855.29 4678.09"/><polygon class="cls-4" points="6467.66 4406.12 6729.81 4289.7 6774.56 4389.57 6697.48 4349.24 6594.85 4393.69 6655 4522.87 6734.5 4487.57 6762.62 4428.77 6823.51 4562.14 6756.54 4524.1 6670.84 4563.28 6729.1 4693.31 6846.45 4641.19 6856.45 4572.36 6898.67 4666.57 6748.2 4733.4 6830.42 4919.43 6906.6 4927.4 6735.31 5003.47 6776.05 4942.45 6615.84 4579.81 6512.68 4625.62 6510.15 4693.4 6451.47 4562.43 6497.06 4590.76 6601.69 4543.16 6543.85 4414.08 6467.66 4406.12"/><polygon class="cls-4" points="6517.57 5401.07 6779.71 5284.65 6824.46 5384.52 6747.39 5344.2 6644.76 5388.65 6704.91 5517.83 6784.4 5482.52 6812.52 5423.72 6873.41 5557.09 6806.44 5519.05 6720.75 5558.24 6779 5688.26 6896.35 5636.15 6906.36 5567.31 6948.57 5661.53 6798.1 5728.35 6880.32 5914.39 6956.51 5922.35 6785.22 5998.42 6825.96 5937.4 6665.74 5574.76 6562.59 5620.57 6560.05 5688.35 6501.37 5557.39 6546.97 5585.71 6651.59 5538.12 6593.76 5409.04 6517.57 5401.07"/><polygon class="cls-4" points="5967.63 5645.31 6229.78 5528.89 6274.52 5628.76 6197.45 5588.43 6094.82 5632.88 6154.97 5762.06 6234.47 5726.76 6262.58 5667.95 6323.48 5801.32 6256.51 5763.28 6170.81 5802.47 6229.07 5932.49 6346.42 5880.38 6356.42 5811.54 6398.64 5905.76 6248.17 5972.59 6330.39 6158.62 6406.57 6166.58 6235.28 6242.65 6276.02 6181.64 6115.81 5818.99 6012.65 5864.81 6010.11 5932.58 5951.44 5801.62 5997.03 5829.94 6101.66 5782.35 6043.82 5653.27 5967.63 5645.31"/><polygon class="cls-4" points="7227.42 5085.82 7489.56 4969.4 7534.31 5069.27 7457.23 5028.94 7354.61 5073.39 7414.76 5202.57 7494.25 5167.27 7522.37 5108.47 7583.26 5241.84 7516.29 5203.8 7430.59 5242.99 7488.85 5373.01 7606.2 5320.89 7616.21 5252.06 7658.42 5346.28 7507.95 5413.1 7590.17 5599.13 7666.35 5607.1 7495.06 5683.17 7535.8 5622.15 7375.59 5259.51 7272.44 5305.32 7269.9 5373.1 7211.22 5242.13 7256.82 5270.46 7361.44 5222.86 7303.6 5093.78 7227.42 5085.82"/><polygon class="cls-4" points="5284.33 4931.65 5546.48 4815.23 5591.23 4915.1 5514.15 4874.77 5411.52 4919.23 5471.67 5048.41 5551.17 5013.1 5579.28 4954.3 5640.18 5087.67 5573.21 5049.63 5487.51 5088.82 5545.77 5218.84 5663.12 5166.72 5673.12 5097.89 5715.34 5192.11 5564.87 5258.93 5647.09 5444.97 5723.27 5452.93 5551.98 5529 5592.72 5467.98 5432.51 5105.34 5329.35 5151.15 5326.81 5218.93 5268.14 5087.97 5313.73 5116.29 5418.36 5068.7 5360.52 4939.62 5284.33 4931.65"/><polygon class="cls-4" points="6582.44 6389.38 6844.58 6272.96 6889.33 6372.83 6812.26 6332.5 6709.63 6376.95 6769.78 6506.14 6849.27 6470.83 6877.39 6412.03 6938.28 6545.4 6871.31 6507.36 6785.62 6546.55 6843.87 6676.57 6961.22 6624.45 6971.23 6555.62 7013.44 6649.84 6862.97 6716.66 6945.19 6902.69 7021.38 6910.66 6850.09 6986.73 6890.83 6925.71 6730.61 6563.07 6627.46 6608.88 6624.92 6676.66 6566.24 6545.69 6611.84 6574.02 6716.46 6526.42 6658.63 6397.34 6582.44 6389.38"/><polygon class="cls-4" points="7194.82 6117.42 7456.96 6001 7501.71 6100.87 7424.64 6060.54 7322.01 6104.99 7382.16 6234.17 7461.65 6198.86 7489.77 6140.06 7550.66 6273.43 7483.69 6235.39 7397.99 6274.58 7456.25 6404.6 7573.6 6352.49 7583.61 6283.65 7625.82 6377.87 7475.35 6444.7 7557.57 6630.73 7633.76 6638.69 7462.46 6714.76 7503.2 6653.74 7342.99 6291.1 7239.84 6336.91 7237.3 6404.69 7178.62 6273.73 7224.22 6302.05 7328.84 6254.46 7271.01 6125.38 7194.82 6117.42"/><polygon class="cls-4" points="7173.62 7075.68 7435.76 6959.26 7480.51 7059.14 7403.44 7018.81 7300.81 7063.26 7360.96 7192.44 7440.45 7157.13 7468.57 7098.33 7529.46 7231.7 7462.49 7193.66 7376.8 7232.85 7435.05 7362.87 7552.4 7310.75 7562.41 7241.92 7604.62 7336.14 7454.15 7402.96 7536.37 7589 7612.56 7596.96 7441.27 7673.03 7482.01 7612.01 7321.79 7249.37 7218.64 7295.18 7216.1 7362.96 7157.42 7231.99 7203.02 7260.32 7307.64 7212.73 7249.81 7083.65 7173.62 7075.68"/><polygon class="cls-4" points="6623.68 7319.92 6885.83 7203.5 6930.57 7303.37 6853.5 7263.04 6750.87 7307.49 6811.02 7436.67 6890.52 7401.37 6918.63 7342.56 6979.53 7475.93 6912.56 7437.89 6826.86 7477.08 6885.12 7607.1 7002.47 7554.99 7012.47 7486.15 7054.69 7580.37 6904.22 7647.2 6986.43 7833.23 7062.62 7841.19 6891.33 7917.27 6932.07 7856.24 6771.85 7493.6 6668.7 7539.41 6666.16 7607.19 6607.48 7476.23 6653.08 7504.56 6757.71 7456.96 6699.87 7327.88 6623.68 7319.92"/><polygon class="cls-4" points="7883.47 6760.43 8145.61 6644.01 8190.36 6743.88 8113.28 6703.55 8010.65 6748 8070.81 6877.18 8150.3 6841.88 8178.42 6783.07 8239.31 6916.45 8172.34 6878.41 8086.64 6917.6 8144.9 7047.62 8262.25 6995.5 8272.26 6926.67 8314.47 7020.89 8164 7087.71 8246.22 7273.74 8322.41 7281.7 8151.11 7357.78 8191.85 7296.76 8031.64 6934.12 7928.48 6979.93 7925.95 7047.71 7867.27 6916.74 7912.86 6945.07 8017.49 6897.47 7959.65 6768.39 7883.47 6760.43"/><polygon class="cls-4" points="6011.49 6642.95 6273.63 6526.53 6318.38 6626.4 6241.3 6586.07 6138.68 6630.52 6198.82 6759.7 6278.32 6724.4 6306.44 6665.6 6367.33 6798.97 6300.36 6760.93 6214.66 6800.11 6272.92 6930.14 6390.27 6878.02 6400.27 6809.19 6442.49 6903.4 6292.02 6970.23 6374.24 7156.26 6450.42 7164.22 6279.13 7240.3 6319.87 7179.28 6159.66 6816.64 6056.5 6862.45 6053.97 6930.23 5995.29 6799.26 6040.88 6827.59 6145.51 6779.99 6087.67 6650.91 6011.49 6642.95"/><polygon class="cls-4" points="7975.94 3739.47 8238.09 3623.05 8282.83 3722.92 8205.76 3682.59 8103.13 3727.05 8163.28 3856.23 8242.78 3820.92 8270.89 3762.12 8331.79 3895.49 8264.82 3857.45 8179.12 3896.64 8237.38 4026.66 8354.73 3974.54 8364.73 3905.71 8406.95 3999.93 8256.48 4066.75 8338.69 4252.78 8414.88 4260.75 8243.59 4336.82 8284.33 4275.8 8124.11 3913.16 8020.96 3958.97 8018.42 4026.75 7959.74 3895.78 8005.34 3924.11 8109.97 3876.51 8052.13 3747.44 7975.94 3739.47"/><polygon class="cls-4" points="8588.32 3467.51 8850.46 3351.09 8895.21 3450.96 8818.14 3410.63 8715.51 3455.08 8775.66 3584.26 8855.15 3548.96 8883.27 3490.15 8944.16 3623.52 8877.19 3585.49 8791.5 3624.67 8849.75 3754.7 8967.1 3702.58 8977.11 3633.74 9019.33 3727.96 8868.85 3794.79 8951.07 3980.82 9027.26 3988.78 8855.97 4064.86 8896.71 4003.84 8736.49 3641.19 8633.34 3687.01 8630.8 3754.78 8572.12 3623.82 8617.72 3652.14 8722.34 3604.55 8664.51 3475.47 8588.32 3467.51"/><polygon class="cls-4" points="8560.39 4497.03 8822.53 4380.61 8867.28 4480.48 8790.21 4440.15 8687.58 4484.6 8747.73 4613.78 8827.22 4578.48 8855.34 4519.67 8916.23 4653.04 8849.26 4615.01 8763.57 4654.19 8821.83 4784.22 8939.17 4732.1 8949.18 4663.27 8991.4 4757.48 8840.92 4824.31 8923.14 5010.34 8999.33 5018.3 8828.04 5094.38 8868.78 5033.36 8708.56 4670.72 8605.41 4716.53 8602.87 4784.31 8544.19 4653.34 8589.79 4681.67 8694.41 4634.07 8636.58 4504.99 8560.39 4497.03"/><polygon class="cls-4" points="7932.62 4775.83 8194.76 4659.41 8239.51 4759.28 8162.44 4718.95 8059.81 4763.4 8119.96 4892.58 8199.45 4857.28 8227.57 4798.48 8288.46 4931.85 8221.49 4893.81 8135.8 4933 8194.05 5063.02 8311.4 5010.9 8321.41 4942.07 8363.63 5036.28 8213.15 5103.11 8295.37 5289.14 8371.56 5297.1 8200.27 5373.18 8241.01 5312.16 8080.79 4949.52 7977.64 4995.33 7975.1 5063.11 7916.42 4932.14 7962.02 4960.47 8066.64 4912.87 8008.81 4783.79 7932.62 4775.83"/><polygon class="cls-4" points="9192.4 4216.34 9454.55 4099.92 9499.3 4199.8 9422.22 4159.47 9319.59 4203.92 9379.74 4333.1 9459.24 4297.79 9487.35 4238.99 9548.25 4372.36 9481.28 4334.32 9395.58 4373.51 9453.84 4503.53 9571.19 4451.41 9581.19 4382.58 9623.41 4476.8 9472.94 4543.63 9555.16 4729.66 9631.34 4737.62 9460.05 4813.69 9500.79 4752.67 9340.58 4390.03 9237.42 4435.84 9234.88 4503.62 9176.2 4372.65 9221.8 4400.98 9326.43 4353.39 9268.59 4224.31 9192.4 4216.34"/><polygon class="cls-4" points="7249.32 4062.18 7511.46 3945.76 7556.21 4045.63 7479.14 4005.3 7376.51 4049.75 7436.66 4178.93 7516.15 4143.62 7544.27 4084.82 7605.16 4218.19 7538.19 4180.15 7452.5 4219.34 7510.75 4349.36 7628.1 4297.25 7638.11 4228.41 7680.32 4322.63 7529.85 4389.46 7612.07 4575.49 7688.26 4583.45 7516.97 4659.52 7557.71 4598.5 7397.49 4235.86 7294.34 4281.67 7291.8 4349.45 7233.12 4218.49 7278.72 4246.81 7383.34 4199.22 7325.51 4070.14 7249.32 4062.18"/><polygon class="cls-4" points="8663.54 5468.34 8925.68 5351.92 8970.43 5451.79 8893.36 5411.46 8790.73 5455.91 8850.88 5585.09 8930.37 5549.78 8958.49 5490.98 9019.38 5624.35 8952.41 5586.31 8866.72 5625.5 8924.98 5755.52 9042.32 5703.41 9052.33 5634.57 9094.55 5728.79 8944.07 5795.62 9026.29 5981.65 9102.48 5989.61 8931.19 6065.68 8971.93 6004.66 8811.71 5642.02 8708.56 5687.83 8706.02 5755.61 8647.34 5624.65 8692.94 5652.97 8797.56 5605.38 8739.73 5476.3 8663.54 5468.34"/><polygon class="cls-4" points="9275.92 5196.37 9538.06 5079.95 9582.81 5179.82 9505.74 5139.49 9403.11 5183.94 9463.26 5313.12 9542.75 5277.82 9570.87 5219.02 9631.76 5352.39 9564.79 5314.35 9479.09 5353.54 9537.35 5483.56 9654.7 5431.44 9664.71 5362.61 9706.92 5456.83 9556.45 5523.65 9638.67 5709.68 9714.86 5717.65 9543.57 5793.72 9584.31 5732.7 9424.09 5370.06 9320.94 5415.87 9318.4 5483.65 9259.72 5352.68 9305.32 5381.01 9409.94 5333.41 9352.1 5204.33 9275.92 5196.37"/><polygon class="cls-4" points="9254.72 6154.64 9516.86 6038.22 9561.61 6138.09 9484.54 6097.76 9381.91 6142.21 9442.06 6271.39 9521.55 6236.09 9549.67 6177.28 9610.56 6310.65 9543.59 6272.61 9457.9 6311.8 9516.15 6441.82 9633.5 6389.71 9643.51 6320.87 9685.73 6415.09 9535.25 6481.92 9617.47 6667.95 9693.66 6675.91 9522.37 6751.98 9563.11 6690.97 9402.89 6328.32 9299.74 6374.14 9297.2 6441.91 9238.52 6310.95 9284.12 6339.27 9388.74 6291.68 9330.91 6162.6 9254.72 6154.64"/><polygon class="cls-4" points="8626.95 6433.44 8889.09 6317.02 8933.84 6416.89 8856.77 6376.56 8754.14 6421.01 8814.29 6550.19 8893.78 6514.89 8921.9 6456.08 8982.79 6589.45 8915.82 6551.42 8830.13 6590.6 8888.38 6720.63 9005.73 6668.51 9015.74 6599.68 9057.95 6693.89 8907.48 6760.72 8989.7 6946.75 9065.89 6954.71 8894.6 7030.79 8935.34 6969.77 8775.12 6607.13 8671.97 6652.94 8669.43 6720.72 8610.75 6589.75 8656.35 6618.08 8760.97 6570.48 8703.14 6441.4 8626.95 6433.44"/><polygon class="cls-4" points="9886.73 5873.95 10148.88 5757.53 10193.62 5857.4 10116.55 5817.07 10013.92 5861.52 10074.07 5990.71 10153.57 5955.4 10181.68 5896.6 10242.58 6029.97 10175.61 5991.93 10089.91 6031.12 10148.17 6161.14 10265.52 6109.02 10275.52 6040.19 10317.74 6134.41 10167.27 6201.23 10249.48 6387.27 10325.67 6395.23 10154.38 6471.3 10195.12 6410.28 10034.91 6047.64 9931.75 6093.45 9929.21 6161.23 9870.53 6030.26 9916.13 6058.59 10020.75 6010.99 9962.92 5881.91 9886.73 5873.95"/><polygon class="cls-4" points="7936.92 5791.04 8199.06 5674.62 8243.81 5774.49 8166.74 5734.16 8064.11 5778.61 8124.26 5907.79 8203.75 5872.49 8231.87 5813.68 8292.76 5947.05 8225.79 5909.02 8140.1 5948.2 8198.35 6078.23 8315.7 6026.11 8325.71 5957.27 8367.92 6051.49 8217.45 6118.32 8299.67 6304.35 8375.86 6312.31 8204.57 6388.39 8245.3 6327.37 8085.09 5964.73 7981.94 6010.54 7979.4 6078.31 7920.72 5947.35 7966.32 5975.68 8070.94 5928.08 8013.1 5799 7936.92 5791.04"/><polygon class="cls-4" points="587.15 3056.32 849.29 2939.9 894.04 3039.77 816.97 2999.45 714.34 3043.89 774.49 3173.08 853.99 3137.77 882.1 3078.97 943 3212.34 876.03 3174.3 790.33 3213.49 848.59 3343.51 965.94 3291.39 975.94 3222.56 1018.16 3316.78 867.69 3383.6 949.9 3569.64 1026.09 3577.6 854.8 3653.67 895.54 3592.65 735.32 3230.01 632.17 3275.82 629.63 3343.6 570.95 3212.63 616.55 3240.96 721.17 3193.36 663.34 3064.28 587.15 3056.32"/><polygon class="cls-4" points="1199.53 2784.36 1461.67 2667.94 1506.42 2767.81 1429.35 2727.48 1326.72 2771.93 1386.87 2901.11 1466.36 2865.81 1494.48 2807 1555.37 2940.37 1488.4 2902.33 1402.71 2941.52 1460.96 3071.55 1578.31 3019.43 1588.32 2950.59 1630.54 3044.81 1480.06 3111.64 1562.28 3297.67 1638.47 3305.63 1467.18 3381.7 1507.92 3320.68 1347.7 2958.04 1244.55 3003.86 1242.01 3071.63 1183.33 2940.67 1228.93 2968.99 1333.55 2921.4 1275.72 2792.32 1199.53 2784.36"/><polygon class="cls-4" points="1249.43 3779.31 1511.58 3662.89 1556.33 3762.76 1479.25 3722.43 1376.62 3766.88 1436.77 3896.07 1516.27 3860.76 1544.38 3801.96 1605.28 3935.33 1538.31 3897.29 1452.61 3936.48 1510.87 4066.5 1628.22 4014.38 1638.22 3945.55 1680.44 4039.77 1529.97 4106.59 1612.19 4292.62 1688.37 4300.59 1517.08 4376.66 1557.82 4315.64 1397.61 3953 1294.45 3998.81 1291.92 4066.59 1233.24 3935.62 1278.83 3963.95 1383.46 3916.35 1325.62 3787.27 1249.43 3779.31"/><polygon class="cls-4" points="699.5 4023.55 961.64 3907.13 1006.39 4007 929.32 3966.67 826.69 4011.12 886.84 4140.3 966.33 4104.99 994.45 4046.19 1055.34 4179.56 988.37 4141.52 902.67 4180.71 960.93 4310.73 1078.28 4258.62 1088.29 4189.78 1130.5 4284 980.03 4350.83 1062.25 4536.86 1138.44 4544.82 967.14 4620.89 1007.88 4559.87 847.67 4197.23 744.52 4243.04 741.98 4310.82 683.3 4179.86 728.9 4208.18 833.52 4160.59 775.69 4031.51 699.5 4023.55"/><polygon class="cls-4" points="1959.28 3464.06 2221.43 3347.64 2266.17 3447.51 2189.1 3407.18 2086.47 3451.63 2146.62 3580.81 2226.11 3545.51 2254.23 3486.7 2315.13 3620.07 2248.16 3582.04 2162.46 3621.22 2220.72 3751.25 2338.07 3699.13 2348.07 3630.3 2390.29 3724.51 2239.82 3791.34 2322.03 3977.37 2398.22 3985.33 2226.93 4061.41 2267.67 4000.39 2107.45 3637.74 2004.3 3683.56 2001.76 3751.34 1943.08 3620.37 1988.68 3648.7 2093.3 3601.1 2035.47 3472.02 1959.28 3464.06"/><polygon class="cls-4" points="16.2 3309.89 278.34 3193.47 323.09 3293.34 246.02 3253.01 143.39 3297.46 203.54 3426.64 283.03 3391.34 311.15 3332.53 372.04 3465.91 305.07 3427.87 219.38 3467.06 277.63 3597.08 394.98 3544.96 404.99 3476.13 447.2 3570.34 296.73 3637.17 378.95 3823.2 455.14 3831.16 283.85 3907.24 324.58 3846.22 164.37 3483.58 61.22 3529.39 58.68 3597.17 0 3466.2 45.6 3494.53 150.22 3446.93 92.39 3317.85 16.2 3309.89"/><polygon class="cls-4" points="1314.31 4767.62 1576.45 4651.2 1621.2 4751.07 1544.12 4710.74 1441.49 4755.19 1501.64 4884.37 1581.14 4849.07 1609.26 4790.26 1670.15 4923.63 1603.18 4885.6 1517.48 4924.78 1575.74 5054.81 1693.09 5002.69 1703.09 4933.85 1745.31 5028.07 1594.84 5094.9 1677.06 5280.93 1753.24 5288.89 1581.95 5364.97 1622.69 5303.95 1462.48 4941.31 1359.32 4987.12 1356.79 5054.9 1298.11 4923.93 1343.7 4952.26 1448.33 4904.66 1390.49 4775.58 1314.31 4767.62"/><polygon class="cls-4" points="1926.68 4495.65 2188.82 4379.23 2233.57 4479.11 2156.5 4438.78 2053.87 4483.23 2114.02 4612.41 2193.52 4577.1 2221.63 4518.3 2282.53 4651.67 2215.56 4613.63 2129.86 4652.82 2188.12 4782.84 2305.47 4730.73 2315.47 4661.89 2357.69 4756.11 2207.22 4822.94 2289.43 5008.97 2365.62 5016.93 2194.33 5093 2235.07 5031.98 2074.85 4669.34 1971.7 4715.15 1969.16 4782.93 1910.48 4651.97 1956.08 4680.29 2060.7 4632.7 2002.87 4503.62 1926.68 4495.65"/><polygon class="cls-4" points="1905.48 5453.92 2167.63 5337.5 2212.38 5437.37 2135.3 5397.04 2032.67 5441.49 2092.82 5570.67 2172.32 5535.37 2200.43 5476.57 2261.33 5609.94 2194.36 5571.9 2108.66 5611.09 2166.92 5741.11 2284.27 5688.99 2294.27 5620.16 2336.49 5714.38 2186.02 5781.2 2268.24 5967.23 2344.42 5975.2 2173.13 6051.27 2213.87 5990.25 2053.66 5627.61 1950.5 5673.42 1947.96 5741.2 1889.29 5610.23 1934.88 5638.56 2039.51 5590.96 1981.67 5461.88 1905.48 5453.92"/><polygon class="cls-4" points="1355.55 5698.16 1617.69 5581.73 1662.44 5681.61 1585.37 5641.28 1482.74 5685.73 1542.89 5814.91 1622.38 5779.6 1650.5 5720.8 1711.39 5854.17 1644.42 5816.13 1558.72 5855.32 1616.98 5985.34 1734.33 5933.23 1744.34 5864.39 1786.55 5958.61 1636.08 6025.44 1718.3 6211.47 1794.49 6219.43 1623.19 6295.5 1663.93 6234.48 1503.72 5871.84 1400.57 5917.65 1398.03 5985.43 1339.35 5854.47 1384.95 5882.79 1489.57 5835.2 1431.73 5706.12 1355.55 5698.16"/><polygon class="cls-4" points="2615.33 5138.67 2877.47 5022.25 2922.22 5122.12 2845.15 5081.79 2742.52 5126.24 2802.67 5255.42 2882.16 5220.12 2910.28 5161.31 2971.17 5294.68 2904.2 5256.65 2818.51 5295.83 2876.77 5425.86 2994.11 5373.74 3004.12 5304.9 3046.34 5399.12 2895.86 5465.95 2978.08 5651.98 3054.27 5659.94 2882.98 5736.02 2923.72 5674.99 2763.5 5312.35 2660.35 5358.17 2657.81 5425.94 2599.13 5294.98 2644.73 5323.31 2749.35 5275.71 2691.52 5146.63 2615.33 5138.67"/><polygon class="cls-4" points="743.35 5021.19 1005.49 4904.77 1050.24 5004.64 973.17 4964.31 870.54 5008.76 930.69 5137.94 1010.18 5102.64 1038.3 5043.83 1099.19 5177.2 1032.22 5139.16 946.53 5178.35 1004.78 5308.38 1122.13 5256.26 1132.14 5187.42 1174.36 5281.64 1023.88 5348.47 1106.1 5534.5 1182.29 5542.46 1011 5618.53 1051.74 5557.51 891.52 5194.87 788.37 5240.69 785.83 5308.46 727.15 5177.5 772.75 5205.82 877.37 5158.23 819.54 5029.15 743.35 5021.19"/><polygon class="cls-4" points="2707.81 2117.71 2969.95 2001.29 3014.7 2101.16 2937.63 2060.83 2835 2105.28 2895.15 2234.46 2974.64 2199.16 3002.76 2140.36 3063.65 2273.73 2996.68 2235.69 2910.98 2274.88 2969.24 2404.9 3086.59 2352.78 3096.6 2283.95 3138.81 2378.16 2988.34 2444.99 3070.56 2631.02 3146.75 2638.99 2975.45 2715.06 3016.19 2654.04 2855.98 2291.4 2752.83 2337.21 2750.29 2404.99 2691.61 2274.02 2737.21 2302.35 2841.83 2254.75 2783.99 2125.67 2707.81 2117.71"/><polygon class="cls-4" points="3320.18 1845.75 3582.33 1729.33 3627.08 1829.2 3550 1788.87 3447.37 1833.32 3507.52 1962.5 3587.02 1927.19 3615.14 1868.39 3676.03 2001.76 3609.06 1963.72 3523.36 2002.91 3581.62 2132.93 3698.97 2080.82 3708.97 2011.98 3751.19 2106.2 3600.72 2173.03 3682.94 2359.06 3759.12 2367.02 3587.83 2443.09 3628.57 2382.07 3468.36 2019.43 3365.2 2065.24 3362.67 2133.02 3303.99 2002.06 3349.58 2030.38 3454.21 1982.79 3396.37 1853.71 3320.18 1845.75"/><polygon class="cls-4" points="3292.26 2875.27 3554.4 2758.85 3599.15 2858.72 3522.07 2818.39 3419.44 2862.84 3479.59 2992.02 3559.09 2956.72 3587.21 2897.91 3648.1 3031.28 3581.13 2993.24 3495.43 3032.43 3553.69 3162.45 3671.04 3110.34 3681.05 3041.5 3723.26 3135.72 3572.79 3202.55 3655.01 3388.58 3731.19 3396.54 3559.9 3472.61 3600.64 3411.59 3440.43 3048.95 3337.27 3094.76 3334.74 3162.54 3276.06 3031.58 3321.65 3059.9 3426.28 3012.31 3368.44 2883.23 3292.26 2875.27"/><polygon class="cls-4" points="2664.49 3154.07 2926.63 3037.65 2971.38 3137.52 2894.3 3097.19 2791.67 3141.64 2851.82 3270.82 2931.32 3235.52 2959.43 3176.71 3020.33 3310.08 2953.36 3272.05 2867.66 3311.23 2925.92 3441.26 3043.27 3389.14 3053.27 3320.3 3095.49 3414.52 2945.02 3481.35 3027.24 3667.38 3103.42 3675.34 2932.13 3751.42 2972.87 3690.39 2812.66 3327.75 2709.5 3373.57 2706.97 3441.34 2648.29 3310.38 2693.88 3338.7 2798.51 3291.11 2740.67 3162.03 2664.49 3154.07"/><polygon class="cls-4" points="3924.27 2594.58 4186.41 2478.16 4231.16 2578.03 4154.09 2537.7 4051.46 2582.15 4111.61 2711.33 4191.1 2676.03 4219.22 2617.23 4280.11 2750.6 4213.14 2712.56 4127.44 2751.75 4185.7 2881.77 4303.05 2829.65 4313.06 2760.82 4355.27 2855.04 4204.8 2921.86 4287.02 3107.89 4363.21 3115.86 4191.91 3191.93 4232.65 3130.91 4072.44 2768.27 3969.29 2814.08 3966.75 2881.86 3908.07 2750.89 3953.67 2779.22 4058.29 2731.62 4000.46 2602.54 3924.27 2594.58"/><polygon class="cls-4" points="1981.18 2440.41 2243.33 2323.99 2288.08 2423.86 2211 2383.54 2108.37 2427.99 2168.52 2557.17 2248.02 2521.86 2276.14 2463.06 2337.03 2596.43 2270.06 2558.39 2184.36 2597.58 2242.62 2727.6 2359.97 2675.48 2369.97 2606.65 2412.19 2700.87 2261.72 2767.7 2343.94 2953.73 2420.12 2961.69 2248.83 3037.76 2289.57 2976.74 2129.36 2614.1 2026.2 2659.91 2023.67 2727.69 1964.99 2596.72 2010.58 2625.05 2115.21 2577.46 2057.37 2448.38 1981.18 2440.41"/><polygon class="cls-4" points="3395.41 3846.57 3657.55 3730.15 3702.3 3830.03 3625.22 3789.7 3522.59 3834.15 3582.74 3963.33 3662.24 3928.02 3690.36 3869.22 3751.25 4002.59 3684.28 3964.55 3598.58 4003.74 3656.84 4133.76 3774.19 4081.64 3784.2 4012.81 3826.41 4107.03 3675.94 4173.85 3758.16 4359.89 3834.34 4367.85 3663.05 4443.92 3703.79 4382.9 3543.58 4020.26 3440.42 4066.07 3437.89 4133.85 3379.21 4002.89 3424.8 4031.21 3529.43 3983.62 3471.59 3854.54 3395.41 3846.57"/><polygon class="cls-4" points="4007.78 3574.61 4269.93 3458.19 4314.67 3558.06 4237.6 3517.73 4134.97 3562.18 4195.12 3691.36 4274.62 3656.06 4302.73 3597.25 4363.63 3730.62 4296.66 3692.59 4210.96 3731.77 4269.22 3861.8 4386.57 3809.68 4396.57 3740.84 4438.79 3835.06 4288.32 3901.89 4370.53 4087.92 4446.72 4095.88 4275.43 4171.96 4316.17 4110.94 4155.95 3748.3 4052.8 3794.11 4050.26 3861.89 3991.58 3730.92 4037.18 3759.25 4141.81 3711.65 4083.97 3582.57 4007.78 3574.61"/><polygon class="cls-4" points="3986.59 4532.88 4248.73 4416.45 4293.48 4516.33 4216.4 4476 4113.77 4520.45 4173.92 4649.63 4253.42 4614.32 4281.53 4555.52 4342.43 4688.89 4275.46 4650.85 4189.76 4690.04 4248.02 4820.06 4365.37 4767.95 4375.37 4699.11 4417.59 4793.33 4267.12 4860.16 4349.34 5046.19 4425.52 5054.15 4254.23 5130.22 4294.97 5069.2 4134.76 4706.56 4031.6 4752.37 4029.07 4820.15 3970.39 4689.19 4015.98 4717.51 4120.61 4669.92 4062.77 4540.84 3986.59 4532.88"/><polygon class="cls-4" points="3358.82 4811.68 3620.96 4695.26 3665.71 4795.13 3588.63 4754.8 3486 4799.25 3546.15 4928.43 3625.65 4893.13 3653.76 4834.32 3714.66 4967.69 3647.69 4929.65 3561.99 4968.84 3620.25 5098.86 3737.6 5046.75 3747.6 4977.91 3789.82 5072.13 3639.35 5138.96 3721.57 5324.99 3797.75 5332.95 3626.46 5409.02 3667.2 5348 3506.99 4985.36 3403.83 5031.18 3401.3 5098.95 3342.61 4967.99 3388.21 4996.31 3492.84 4948.72 3435 4819.64 3358.82 4811.68"/><polygon class="cls-4" points="4618.6 4252.19 4880.74 4135.77 4925.49 4235.64 4848.42 4195.31 4745.79 4239.76 4805.94 4368.94 4885.43 4333.64 4913.55 4274.84 4974.44 4408.2 4907.47 4370.17 4821.77 4409.36 4880.03 4539.38 4997.38 4487.26 5007.39 4418.43 5049.6 4512.65 4899.13 4579.47 4981.35 4765.5 5057.54 4773.47 4886.24 4849.54 4926.98 4788.52 4766.77 4425.88 4663.62 4471.69 4661.08 4539.47 4602.4 4408.5 4648 4436.83 4752.62 4389.23 4694.78 4260.15 4618.6 4252.19"/><polygon class="cls-4" points="2668.78 4169.28 2930.93 4052.86 2975.67 4152.73 2898.6 4112.4 2795.97 4156.85 2856.12 4286.03 2935.62 4250.73 2963.73 4191.92 3024.63 4325.29 2957.66 4287.25 2871.96 4326.44 2930.22 4456.46 3047.57 4404.35 3057.57 4335.51 3099.79 4429.73 2949.32 4496.56 3031.53 4682.59 3107.72 4690.55 2936.43 4766.62 2977.17 4705.6 2816.95 4342.96 2713.8 4388.77 2711.26 4456.55 2652.58 4325.59 2698.18 4353.91 2802.8 4306.32 2744.97 4177.24 2668.78 4169.28"/><polygon class="cls-4" points="4481.03 1327 4743.18 1210.58 4787.93 1310.45 4710.85 1270.12 4608.22 1314.57 4668.37 1443.75 4747.87 1408.45 4775.98 1349.64 4836.88 1483.01 4769.91 1444.97 4684.21 1484.16 4742.47 1614.18 4859.82 1562.07 4869.82 1493.23 4912.04 1587.45 4761.57 1654.28 4843.78 1840.31 4919.97 1848.27 4748.68 1924.35 4789.42 1863.32 4629.21 1500.68 4526.05 1546.5 4523.52 1614.27 4464.84 1483.31 4510.43 1511.63 4615.06 1464.04 4557.22 1334.96 4481.03 1327"/><polygon class="cls-4" points="5093.41 1055.03 5355.55 938.61 5400.3 1038.48 5323.23 998.15 5220.6 1042.6 5280.75 1171.79 5360.24 1136.48 5388.36 1077.68 5449.25 1211.05 5382.28 1173.01 5296.59 1212.2 5354.85 1342.22 5472.19 1290.1 5482.2 1221.27 5524.42 1315.49 5373.94 1382.31 5456.16 1568.35 5532.35 1576.31 5361.06 1652.38 5401.8 1591.36 5241.58 1228.72 5138.43 1274.53 5135.89 1342.31 5077.21 1211.34 5122.81 1239.67 5227.43 1192.08 5169.6 1062.99 5093.41 1055.03"/><polygon class="cls-4" points="5143.32 2049.99 5405.46 1933.57 5450.21 2033.44 5373.13 1993.11 5270.51 2037.56 5330.65 2166.74 5410.15 2131.43 5438.27 2072.63 5499.16 2206 5432.19 2167.96 5346.49 2207.15 5404.75 2337.17 5522.1 2285.06 5532.11 2216.22 5574.32 2310.44 5423.85 2377.27 5506.07 2563.3 5582.25 2571.26 5410.96 2647.33 5451.7 2586.31 5291.49 2223.67 5188.33 2269.48 5185.8 2337.26 5127.12 2206.3 5172.72 2234.62 5277.34 2187.03 5219.5 2057.95 5143.32 2049.99"/><polygon class="cls-4" points="4593.38 2294.22 4855.52 2177.8 4900.27 2277.67 4823.2 2237.34 4720.57 2281.79 4780.72 2410.97 4860.21 2375.67 4888.33 2316.86 4949.22 2450.24 4882.25 2412.2 4796.56 2451.39 4854.81 2581.41 4972.16 2529.29 4982.17 2460.46 5024.39 2554.68 4873.91 2621.5 4956.13 2807.53 5032.32 2815.49 4861.03 2891.57 4901.77 2830.55 4741.55 2467.91 4638.4 2513.72 4635.86 2581.5 4577.18 2450.53 4622.78 2478.86 4727.4 2431.26 4669.57 2302.18 4593.38 2294.22"/><polygon class="cls-4" points="5853.16 1734.73 6115.31 1618.31 6160.06 1718.18 6082.98 1677.86 5980.35 1722.31 6040.5 1851.49 6120 1816.18 6148.11 1757.38 6209.01 1890.75 6142.04 1852.71 6056.34 1891.9 6114.6 2021.92 6231.95 1969.81 6241.95 1900.97 6284.17 1995.19 6133.7 2062.01 6215.91 2248.05 6292.1 2256.01 6120.81 2332.08 6161.55 2271.06 6001.34 1908.42 5898.18 1954.23 5895.64 2022.01 5836.97 1891.05 5882.56 1919.37 5987.19 1871.78 5929.35 1742.7 5853.16 1734.73"/><polygon class="cls-4" points="3910.08 1580.57 4172.22 1464.14 4216.97 1564.02 4139.9 1523.69 4037.27 1568.14 4097.42 1697.32 4176.91 1662.01 4205.03 1603.21 4265.92 1736.58 4198.95 1698.54 4113.26 1737.73 4171.51 1867.75 4288.86 1815.64 4298.87 1746.8 4341.09 1841.02 4190.61 1907.85 4272.83 2093.88 4349.02 2101.84 4177.73 2177.91 4218.47 2116.89 4058.25 1754.25 3955.1 1800.06 3952.56 1867.84 3893.88 1736.88 3939.48 1765.2 4044.1 1717.61 3986.27 1588.53 3910.08 1580.57"/><polygon class="cls-4" points="5208.19 3038.3 5470.33 2921.87 5515.08 3021.75 5438 2981.42 5335.38 3025.87 5395.52 3155.05 5475.02 3119.74 5503.14 3060.94 5564.03 3194.31 5497.06 3156.27 5411.36 3195.46 5469.62 3325.48 5586.97 3273.36 5596.98 3204.53 5639.19 3298.75 5488.72 3365.57 5570.94 3551.61 5647.12 3559.57 5475.83 3635.64 5516.57 3574.62 5356.36 3211.98 5253.2 3257.79 5250.67 3325.57 5191.99 3194.61 5237.58 3222.93 5342.21 3175.34 5284.37 3046.26 5208.19 3038.3"/><polygon class="cls-4" points="5820.56 2766.33 6082.71 2649.91 6127.45 2749.78 6050.38 2709.45 5947.75 2753.9 6007.9 2883.08 6087.4 2847.78 6115.51 2788.97 6176.41 2922.34 6109.44 2884.31 6023.74 2923.49 6082 3053.52 6199.35 3001.4 6209.35 2932.57 6251.57 3026.78 6101.1 3093.61 6183.31 3279.64 6259.5 3287.6 6088.21 3363.68 6128.95 3302.66 5968.73 2940.01 5865.58 2985.83 5863.04 3053.61 5804.36 2922.64 5849.96 2950.97 5954.59 2903.37 5896.75 2774.29 5820.56 2766.33"/><polygon class="cls-4" points="5799.37 3724.6 6061.51 3608.18 6106.26 3708.05 6029.18 3667.72 5926.55 3712.17 5986.7 3841.35 6066.2 3806.04 6094.32 3747.24 6155.21 3880.61 6088.24 3842.57 6002.54 3881.76 6060.8 4011.78 6178.15 3959.67 6188.15 3890.83 6230.37 3985.05 6079.9 4051.88 6162.12 4237.91 6238.3 4245.87 6067.01 4321.94 6107.75 4260.92 5947.54 3898.28 5844.38 3944.09 5841.85 4011.87 5783.17 3880.91 5828.76 3909.23 5933.39 3861.64 5875.55 3732.56 5799.37 3724.6"/><polygon class="cls-4" points="5249.43 3968.83 5511.57 3852.41 5556.32 3952.28 5479.25 3911.95 5376.62 3956.4 5436.77 4085.58 5516.26 4050.28 5544.38 3991.47 5605.27 4124.85 5538.3 4086.81 5452.61 4125.99 5510.86 4256.02 5628.21 4203.9 5638.22 4135.07 5680.43 4229.28 5529.96 4296.11 5612.18 4482.14 5688.37 4490.1 5517.08 4566.18 5557.82 4505.16 5397.6 4142.52 5294.45 4188.33 5291.91 4256.1 5233.23 4125.14 5278.83 4153.47 5383.45 4105.87 5325.62 3976.79 5249.43 3968.83"/><polygon class="cls-4" points="6509.21 3409.34 6771.36 3292.92 6816.1 3392.8 6739.03 3352.47 6636.4 3396.91 6696.55 3526.1 6776.05 3490.79 6804.16 3431.99 6865.06 3565.36 6798.09 3527.32 6712.39 3566.51 6770.65 3696.53 6888 3644.41 6898 3575.58 6940.22 3669.8 6789.75 3736.62 6871.96 3922.66 6948.15 3930.62 6776.86 4006.69 6817.6 3945.67 6657.38 3583.03 6554.23 3628.84 6551.69 3696.62 6493.01 3565.66 6538.61 3593.98 6643.23 3546.39 6585.4 3417.31 6509.21 3409.34"/><polygon class="cls-4" points="4637.23 3291.86 4899.38 3175.44 4944.12 3275.31 4867.05 3234.99 4764.42 3279.43 4824.57 3408.61 4904.07 3373.31 4932.18 3314.51 4993.07 3447.88 4926.11 3409.84 4840.41 3449.03 4898.67 3579.05 5016.02 3526.93 5026.02 3458.1 5068.24 3552.32 4917.77 3619.14 4999.98 3805.18 5076.17 3813.14 4904.88 3889.21 4945.62 3828.19 4785.4 3465.55 4682.25 3511.36 4679.71 3579.14 4621.03 3448.17 4666.63 3476.5 4771.26 3428.91 4713.42 3299.82 4637.23 3291.86"/><polygon class="cls-4" points="6601.69 388.39 6863.83 271.96 6908.58 371.84 6831.51 331.51 6728.88 375.96 6789.03 505.14 6868.52 469.83 6896.64 411.03 6957.53 544.4 6890.56 506.36 6804.87 545.55 6863.12 675.57 6980.47 623.46 6990.48 554.62 7032.69 648.84 6882.22 715.67 6964.44 901.7 7040.63 909.66 6869.34 985.73 6910.08 924.71 6749.86 562.07 6646.71 607.88 6644.17 675.66 6585.49 544.7 6631.09 573.02 6735.71 525.43 6677.88 396.35 6601.69 388.39"/><polygon class="cls-4" points="7214.07 116.42 7476.21 0 7520.96 99.87 7443.89 59.54 7341.26 103.99 7401.4 233.17 7480.9 197.87 7509.02 139.06 7569.91 272.44 7502.94 234.4 7417.24 273.59 7475.5 403.61 7592.85 351.49 7602.86 282.66 7645.07 376.88 7494.6 443.7 7576.82 629.73 7653.01 637.7 7481.71 713.77 7522.45 652.75 7362.24 290.11 7259.09 335.92 7256.55 403.7 7197.87 272.73 7243.47 301.06 7348.09 253.46 7290.25 124.38 7214.07 116.42"/><polygon class="cls-4" points="7186.14 1145.94 7448.28 1029.52 7493.03 1129.39 7415.95 1089.06 7313.33 1133.51 7373.48 1262.69 7452.97 1227.39 7481.09 1168.59 7541.98 1301.96 7475.01 1263.92 7389.31 1303.11 7447.57 1433.13 7564.92 1381.01 7574.93 1312.18 7617.14 1406.4 7466.67 1473.22 7548.89 1659.25 7625.07 1667.22 7453.78 1743.29 7494.52 1682.27 7334.31 1319.63 7231.15 1365.44 7228.62 1433.22 7169.94 1302.25 7215.53 1330.58 7320.16 1282.98 7262.32 1153.9 7186.14 1145.94"/><polygon class="cls-4" points="6558.37 1424.74 6820.51 1308.32 6865.26 1408.19 6788.18 1367.87 6685.56 1412.32 6745.7 1541.5 6825.2 1506.19 6853.32 1447.39 6914.21 1580.76 6847.24 1542.72 6761.54 1581.91 6819.8 1711.93 6937.15 1659.81 6947.15 1590.98 6989.37 1685.2 6838.9 1752.02 6921.12 1938.06 6997.3 1946.02 6826.01 2022.09 6866.75 1961.07 6706.54 1598.43 6603.38 1644.24 6600.85 1712.02 6542.17 1581.06 6587.77 1609.38 6692.39 1561.79 6634.55 1432.71 6558.37 1424.74"/><polygon class="cls-4" points="7818.15 865.26 8080.29 748.84 8125.04 848.71 8047.97 808.38 7945.34 852.83 8005.49 982.01 8084.98 946.71 8113.1 887.9 8173.99 1021.27 8107.02 983.23 8021.33 1022.42 8079.58 1152.44 8196.93 1100.33 8206.94 1031.49 8249.16 1125.71 8098.68 1192.54 8180.9 1378.57 8257.09 1386.53 8085.8 1462.6 8126.54 1401.58 7966.32 1038.94 7863.17 1084.75 7860.63 1152.53 7801.95 1021.57 7847.55 1049.89 7952.17 1002.3 7894.34 873.22 7818.15 865.26"/><polygon class="cls-4" points="5875.07 711.09 6137.21 594.67 6181.96 694.54 6104.89 654.21 6002.26 698.66 6062.4 827.84 6141.9 792.54 6170.02 733.73 6230.91 867.1 6163.94 829.07 6078.24 868.25 6136.5 998.28 6253.85 946.16 6263.86 877.32 6306.07 971.54 6155.6 1038.37 6237.82 1224.4 6314.01 1232.36 6142.71 1308.44 6183.45 1247.41 6023.24 884.77 5920.09 930.59 5917.55 998.36 5858.87 867.4 5904.47 895.73 6009.09 848.13 5951.25 719.05 5875.07 711.09"/><polygon class="cls-4" points="7289.29 2117.25 7551.43 2000.83 7596.18 2100.7 7519.1 2060.37 7416.48 2104.82 7476.63 2234 7556.12 2198.7 7584.24 2139.89 7645.13 2273.26 7578.16 2235.22 7492.46 2274.41 7550.72 2404.44 7668.07 2352.32 7678.08 2283.49 7720.29 2377.7 7569.82 2444.53 7652.04 2630.56 7728.23 2638.52 7556.93 2714.6 7597.67 2653.58 7437.46 2290.93 7334.31 2336.75 7331.77 2404.52 7273.09 2273.56 7318.69 2301.89 7423.31 2254.29 7365.47 2125.21 7289.29 2117.25"/><polygon class="cls-4" points="7901.66 1845.28 8163.81 1728.86 8208.56 1828.73 8131.48 1788.41 8028.85 1832.86 8089 1962.04 8168.5 1926.73 8196.61 1867.93 8257.51 2001.3 8190.54 1963.26 8104.84 2002.45 8163.1 2132.47 8280.45 2080.36 8290.45 2011.52 8332.67 2105.74 8182.2 2172.57 8264.42 2358.6 8340.6 2366.56 8169.31 2442.63 8210.05 2381.61 8049.84 2018.97 7946.68 2064.78 7944.15 2132.56 7885.47 2001.6 7931.06 2029.92 8035.69 1982.33 7977.85 1853.25 7901.66 1845.28"/><polygon class="cls-4" points="7880.47 2803.55 8142.61 2687.13 8187.36 2787 8110.28 2746.67 8007.65 2791.12 8067.81 2920.3 8147.3 2885 8175.42 2826.2 8236.31 2959.57 8169.34 2921.53 8083.64 2960.72 8141.9 3090.74 8259.25 3038.62 8269.26 2969.79 8311.47 3064.01 8161 3130.83 8243.22 3316.86 8319.41 3324.82 8148.11 3400.9 8188.85 3339.88 8028.64 2977.24 7925.48 3023.05 7922.95 3090.83 7864.27 2959.86 7909.86 2988.19 8014.49 2940.59 7956.65 2811.51 7880.47 2803.55"/><polygon class="cls-4" points="7252.7 3082.35 7514.84 2965.93 7559.59 3065.8 7482.51 3025.47 7379.88 3069.92 7440.03 3199.11 7519.53 3163.8 7547.65 3105 7608.54 3238.37 7541.57 3200.33 7455.87 3239.52 7514.13 3369.54 7631.48 3317.42 7641.48 3248.59 7683.7 3342.81 7533.23 3409.63 7615.45 3595.66 7691.63 3603.63 7520.34 3679.7 7561.08 3618.68 7400.87 3256.04 7297.71 3301.85 7295.18 3369.63 7236.5 3238.66 7282.09 3266.99 7386.72 3219.39 7328.88 3090.32 7252.7 3082.35"/><polygon class="cls-4" points="8512.48 2522.87 8774.62 2406.45 8819.37 2506.32 8742.3 2465.99 8639.67 2510.44 8699.82 2639.62 8779.31 2604.31 8807.43 2545.51 8868.32 2678.88 8801.35 2640.84 8715.66 2680.03 8773.91 2810.05 8891.26 2757.94 8901.27 2689.1 8943.48 2783.32 8793.01 2850.15 8875.23 3036.18 8951.42 3044.14 8780.13 3120.21 8820.87 3059.19 8660.65 2696.55 8557.5 2742.36 8554.96 2810.14 8496.28 2679.18 8541.88 2707.5 8646.5 2659.91 8588.67 2530.83 8512.48 2522.87"/><polygon class="cls-4" points="6562.66 2439.95 6824.81 2323.53 6869.56 2423.4 6792.48 2383.07 6689.85 2427.52 6750 2556.7 6829.5 2521.4 6857.61 2462.6 6918.51 2595.97 6851.54 2557.93 6765.84 2597.12 6824.1 2727.14 6941.45 2675.02 6951.45 2606.19 6993.67 2700.41 6843.2 2767.23 6925.42 2953.26 7001.6 2961.23 6830.31 3037.3 6871.05 2976.28 6710.84 2613.64 6607.68 2659.45 6605.15 2727.23 6546.47 2596.26 6592.06 2624.59 6696.69 2576.99 6638.85 2447.91 6562.66 2439.95"/></g></g></g></g></svg>