<svg xmlns="http://www.w3.org/2000/svg" viewBox="0 0 369.3877 106.7538"><defs><style>.cls-1{opacity:0.15;}.cls-2{fill:#fff;}.cls-3{fill:none;stroke:#fff;stroke-miterlimit:10;}</style></defs><g id="Layer_2" data-name="Layer 2"><g id="designs"><g class="cls-1"><polyline class="cls-2" points="30.891 25.138 34.231 19.439 37.329 25.08"/><polyline class="cls-2" points="27.912 30.561 24.798 36.041 37.289 36.025 34.059 41.923 30.845 36.033 27.912 30.561 40.209 30.545 37.289 36.025 30.845 36.033"/><polyline class="cls-2" points="40.226 30.355 43.335 36.017 37.069 36.025"/><polyline class="cls-2" points="27.834 30.699 30.892 24.973 37.116 24.965 37.325 24.965 43.349 24.958 40.24 30.635"/><polyline class="cls-2" points="31.077 24.973 24.812 24.981 27.907 30.837"/><path class="cls-2" d="M34.2388,19.8529h0a.7151.7151,0,0,1-.7118-.7208h0a.72.72,0,0,1,.7136-.7227h0a.7151.7151,0,0,1,.7117.7209h0A.7193.7193,0,0,1,34.2388,19.8529Z"/><path class="cls-2" d="M24.52,25.5329h0a.715.715,0,0,1-.7117-.7209h0a.7194.7194,0,0,1,.7136-.7226h0a.715.715,0,0,1,.7117.7208h0A.72.72,0,0,1,24.52,25.5329Z"/><path class="cls-2" d="M43.6763,25.5085h0a.7151.7151,0,0,1-.7118-.7208h0a.7194.7194,0,0,1,.7136-.7226h0a.715.715,0,0,1,.7117.7208h0A.7193.7193,0,0,1,43.6763,25.5085Z"/><path class="cls-2" d="M43.5,36.86h0a.7152.7152,0,0,1-.7118-.7209h0a.7194.7194,0,0,1,.7136-.7226h0a.7151.7151,0,0,1,.7118.7208h0A.72.72,0,0,1,43.5,36.86Z"/><path class="cls-2" d="M24.6672,36.8835h0a.7151.7151,0,0,1-.7118-.7208h0a.72.72,0,0,1,.7136-.7227h0a.7151.7151,0,0,1,.7118.7208v0A.7194.7194,0,0,1,24.6672,36.8835Z"/></g><g class="cls-1"><polyline class="cls-3" points="7.583 10.568 10.93 5.557 14.021 10.511"/><polyline class="cls-3" points="13.981 21.324 10.752 27.353 7.391 21.333"/><polyline class="cls-3" points="4.604 15.991 2.236 21.591 7.611 21.464"/><polyline class="cls-3" points="16.918 15.786 19.291 21.449 13.761 21.456"/><polyline class="cls-3" points="13.775 10.396 19.48 10.389 16.932 16.066"/><polyline class="cls-3" points="7.769 10.404 2.086 10.68 4.599 16.268"/><path class="cls-3" d="M10.9308,5.2836h0a.7151.7151,0,0,1-.7118-.7208h0a.72.72,0,0,1,.7136-.7227h0a.7151.7151,0,0,1,.7118.7208h0A.7194.7194,0,0,1,10.9308,5.2836Z"/><path class="cls-3" d="M1.2118,10.9636h0A.7152.7152,0,0,1,.5,10.2427h0A.7194.7194,0,0,1,1.2136,9.52h0a.7151.7151,0,0,1,.7118.7208h0A.72.72,0,0,1,1.2118,10.9636Z"/><path class="cls-3" d="M20.3687,10.5793h0a.715.715,0,0,1-.7117-.7208h0a.72.72,0,0,1,.7136-.7227h0a.715.715,0,0,1,.7117.7208h0A.7194.7194,0,0,1,20.3687,10.5793Z"/><path class="cls-3" d="M20.106,22.6786h0a.7152.7152,0,0,1-.7118-.7209h0a.7194.7194,0,0,1,.7136-.7226h0a.7151.7151,0,0,1,.7118.7208h0A.72.72,0,0,1,20.106,22.6786Z"/><path class="cls-3" d="M10.78,28.496h0a.7151.7151,0,0,1-.7118-.7208h0a.7194.7194,0,0,1,.7136-.7226h0a.715.715,0,0,1,.7117.7208h0A.7193.7193,0,0,1,10.78,28.496Z"/><path class="cls-3" d="M1.3584,22.9152h0a.715.715,0,0,1-.7117-.7208h0a.72.72,0,0,1,.7136-.7227h0a.715.715,0,0,1,.7117.7208h0A.7194.7194,0,0,1,1.3584,22.9152Z"/></g><g class="cls-1"><polyline class="cls-2" points="76.197 25.138 79.537 19.439 82.635 25.08"/><polyline class="cls-2" points="73.218 30.561 70.104 36.041 82.594 36.025 79.365 41.923 76.15 36.033 73.218 30.561 85.514 30.545 82.594 36.025 76.15 36.033"/><polyline class="cls-2" points="85.532 30.355 88.641 36.017 82.374 36.025"/><polyline class="cls-2" points="73.139 30.699 76.197 24.973 82.422 24.965 82.631 24.965 88.655 24.958 85.546 30.635"/><polyline class="cls-2" points="76.383 24.973 70.118 24.981 73.213 30.837"/><path class="cls-2" d="M79.5443,19.8529h0a.7151.7151,0,0,1-.7118-.7208h0a.72.72,0,0,1,.7136-.7227h0a.7152.7152,0,0,1,.7118.7209h0A.7194.7194,0,0,1,79.5443,19.8529Z"/><path class="cls-2" d="M69.8253,25.5329h0a.7151.7151,0,0,1-.7118-.7209h0a.7194.7194,0,0,1,.7136-.7226h0a.7151.7151,0,0,1,.7118.7208h0A.72.72,0,0,1,69.8253,25.5329Z"/><path class="cls-2" d="M88.9818,25.5085h0a.7151.7151,0,0,1-.7118-.7208h0a.7194.7194,0,0,1,.7136-.7226h0a.7151.7151,0,0,1,.7118.7208h0A.7194.7194,0,0,1,88.9818,25.5085Z"/><path class="cls-2" d="M88.8059,36.86h0a.7151.7151,0,0,1-.7117-.7209h0a.7193.7193,0,0,1,.7135-.7226h0a.7151.7151,0,0,1,.7118.7208h0A.72.72,0,0,1,88.8059,36.86Z"/><path class="cls-2" d="M69.9727,36.8835h0a.715.715,0,0,1-.7117-.7208h0a.7194.7194,0,0,1,.7135-.7227h0a.7151.7151,0,0,1,.7118.7208v0A.7194.7194,0,0,1,69.9727,36.8835Z"/></g><g class="cls-1"><polyline class="cls-3" points="52.948 10.568 56.295 5.557 59.386 10.511"/><polyline class="cls-3" points="59.346 21.324 56.116 27.353 52.756 21.333"/><polyline class="cls-3" points="49.969 15.991 47.6 21.591 52.976 21.464"/><polyline class="cls-3" points="62.283 15.786 64.656 21.449 59.126 21.456"/><polyline class="cls-3" points="59.139 10.396 64.845 10.389 62.297 16.066"/><polyline class="cls-3" points="53.134 10.404 47.451 10.68 49.964 16.268"/><path class="cls-3" d="M56.2955,5.2836h0a.7151.7151,0,0,1-.7118-.7208h0a.72.72,0,0,1,.7136-.7227h0a.7151.7151,0,0,1,.7118.7208h0A.7194.7194,0,0,1,56.2955,5.2836Z"/><path class="cls-3" d="M46.5765,10.9636h0a.7152.7152,0,0,1-.7118-.7209h0a.7194.7194,0,0,1,.7136-.7226h0a.7151.7151,0,0,1,.7118.7208h0A.72.72,0,0,1,46.5765,10.9636Z"/><path class="cls-3" d="M65.7335,10.5793h0a.7151.7151,0,0,1-.7118-.7208h0a.72.72,0,0,1,.7136-.7227h0a.715.715,0,0,1,.7117.7208h0A.7194.7194,0,0,1,65.7335,10.5793Z"/><path class="cls-3" d="M65.4707,22.6786h0a.7152.7152,0,0,1-.7118-.7209h0a.7194.7194,0,0,1,.7136-.7226h0a.7151.7151,0,0,1,.7118.7208h0A.72.72,0,0,1,65.4707,22.6786Z"/><path class="cls-3" d="M56.1444,28.496h0a.7151.7151,0,0,1-.7118-.7208h0a.7194.7194,0,0,1,.7136-.7226h0a.715.715,0,0,1,.7117.7208h0A.7193.7193,0,0,1,56.1444,28.496Z"/><path class="cls-3" d="M46.7232,22.9152h0a.715.715,0,0,1-.7117-.7208h0a.72.72,0,0,1,.7136-.7227h0a.715.715,0,0,1,.7117.7208h0A.7194.7194,0,0,1,46.7232,22.9152Z"/></g><g class="cls-1"><polyline class="cls-2" points="124.283 24.073 127.623 18.374 130.721 24.015"/><polyline class="cls-2" points="121.304 29.496 118.19 34.976 130.681 34.96 127.451 40.858 124.236 34.968 121.304 29.496 133.6 29.48 130.681 34.96 124.236 34.968"/><polyline class="cls-2" points="133.618 29.29 136.727 34.952 130.46 34.96"/><polyline class="cls-2" points="121.225 29.634 124.283 23.908 130.508 23.9 130.717 23.9 136.741 23.893 133.632 29.57"/><polyline class="cls-2" points="124.469 23.908 118.204 23.916 121.299 29.772"/><path class="cls-2" d="M127.63,18.7879h0a.7152.7152,0,0,1-.7118-.7209h0a.7194.7194,0,0,1,.7136-.7226h0a.715.715,0,0,1,.7117.7208h0A.7194.7194,0,0,1,127.63,18.7879Z"/><path class="cls-2" d="M117.9113,24.4679h0a.7151.7151,0,0,1-.7117-.7209h0a.7194.7194,0,0,1,.7136-.7226h0a.715.715,0,0,1,.7117.7208h0A.72.72,0,0,1,117.9113,24.4679Z"/><path class="cls-2" d="M137.0679,24.4435h0a.7151.7151,0,0,1-.7118-.7208h0A.72.72,0,0,1,137.07,23h0a.7151.7151,0,0,1,.7117.7209h0A.7193.7193,0,0,1,137.0679,24.4435Z"/><path class="cls-2" d="M136.892,35.7945h0a.7151.7151,0,0,1-.7118-.7208h0a.7194.7194,0,0,1,.7136-.7226h0a.7151.7151,0,0,1,.7118.7208h0A.7194.7194,0,0,1,136.892,35.7945Z"/><path class="cls-2" d="M118.0588,35.8185h0a.7152.7152,0,0,1-.7118-.7209h0a.7194.7194,0,0,1,.7136-.7226h0a.7151.7151,0,0,1,.7118.7208h0A.72.72,0,0,1,118.0588,35.8185Z"/></g><g class="cls-1"><polyline class="cls-3" points="100.975 9.503 104.322 4.492 107.413 9.446"/><polyline class="cls-3" points="107.373 20.259 104.143 26.288 100.783 20.268"/><polyline class="cls-3" points="97.996 14.926 95.627 20.526 101.003 20.399"/><polyline class="cls-3" points="110.31 14.721 112.682 20.384 107.152 20.391"/><polyline class="cls-3" points="107.166 9.331 112.871 9.324 110.324 15.001"/><polyline class="cls-3" points="101.161 9.339 95.478 9.615 97.991 15.203"/><path class="cls-3" d="M104.3224,4.2186h0a.7152.7152,0,0,1-.7118-.7209h0a.7194.7194,0,0,1,.7136-.7226h0a.7151.7151,0,0,1,.7118.7208h0A.72.72,0,0,1,104.3224,4.2186Z"/><path class="cls-3" d="M94.6034,9.8985h0a.7151.7151,0,0,1-.7118-.7208h0a.7194.7194,0,0,1,.7136-.7226h0a.7151.7151,0,0,1,.7118.7208h0A.7194.7194,0,0,1,94.6034,9.8985Z"/><path class="cls-3" d="M113.76,9.5143h0a.7151.7151,0,0,1-.7117-.7209h0a.7194.7194,0,0,1,.7136-.7226h0a.715.715,0,0,1,.7117.7208h0A.72.72,0,0,1,113.76,9.5143Z"/><path class="cls-3" d="M113.4976,21.6135h0a.7151.7151,0,0,1-.7118-.7208h0a.7194.7194,0,0,1,.7136-.7226h0a.7151.7151,0,0,1,.7118.7208h0A.7194.7194,0,0,1,113.4976,21.6135Z"/><path class="cls-3" d="M104.1713,27.431h0a.7151.7151,0,0,1-.7118-.7208h0a.72.72,0,0,1,.7136-.7227h0a.7151.7151,0,0,1,.7117.7209h0A.7193.7193,0,0,1,104.1713,27.431Z"/><path class="cls-3" d="M94.75,21.85h0a.7151.7151,0,0,1-.7117-.7209h0a.7194.7194,0,0,1,.7136-.7226h0a.715.715,0,0,1,.7117.7208h0A.72.72,0,0,1,94.75,21.85Z"/></g><g class="cls-1"><polyline class="cls-2" points="169.588 24.073 172.929 18.374 176.026 24.015"/><polyline class="cls-2" points="166.609 29.496 163.496 34.976 175.986 34.96 172.757 40.858 169.542 34.968 166.609 29.496 178.906 29.48 175.986 34.96 169.542 34.968"/><polyline class="cls-2" points="178.923 29.29 182.032 34.952 175.766 34.96"/><polyline class="cls-2" points="166.531 29.634 169.589 23.908 175.813 23.9 176.022 23.9 182.046 23.893 178.937 29.57"/><polyline class="cls-2" points="169.774 23.908 163.509 23.916 166.604 29.772"/><path class="cls-2" d="M172.9359,18.7879h0a.7152.7152,0,0,1-.7118-.7209h0a.7194.7194,0,0,1,.7136-.7226h0a.7151.7151,0,0,1,.7118.7208h0A.72.72,0,0,1,172.9359,18.7879Z"/><path class="cls-2" d="M163.2169,24.4679h0a.7152.7152,0,0,1-.7118-.7209h0a.7194.7194,0,0,1,.7136-.7226h0a.7151.7151,0,0,1,.7118.7208h0A.72.72,0,0,1,163.2169,24.4679Z"/><path class="cls-2" d="M182.3734,24.4435h0a.7151.7151,0,0,1-.7118-.7208h0A.72.72,0,0,1,182.3752,23h0a.7152.7152,0,0,1,.7118.7209h0A.7194.7194,0,0,1,182.3734,24.4435Z"/><path class="cls-2" d="M182.1975,35.7945h0a.715.715,0,0,1-.7117-.7208h0a.7193.7193,0,0,1,.7135-.7226h0a.7151.7151,0,0,1,.7118.7208h0A.7194.7194,0,0,1,182.1975,35.7945Z"/><path class="cls-2" d="M163.3643,35.8185h0a.7152.7152,0,0,1-.7118-.7209h0a.7194.7194,0,0,1,.7136-.7226h0a.7151.7151,0,0,1,.7118.7208h0A.72.72,0,0,1,163.3643,35.8185Z"/></g><g class="cls-1"><polyline class="cls-3" points="146.34 9.503 149.687 4.492 152.777 9.446"/><polyline class="cls-3" points="152.737 20.259 149.508 26.288 146.147 20.268"/><polyline class="cls-3" points="143.361 14.926 140.992 20.526 146.367 20.399"/><polyline class="cls-3" points="155.674 14.721 158.047 20.384 152.517 20.391"/><polyline class="cls-3" points="152.531 9.331 158.236 9.324 155.689 15.001"/><polyline class="cls-3" points="146.526 9.339 140.843 9.615 143.355 15.203"/><path class="cls-3" d="M149.6871,4.2186h0a.7152.7152,0,0,1-.7118-.7209h0a.7194.7194,0,0,1,.7136-.7226h0a.7151.7151,0,0,1,.7118.7208h0A.72.72,0,0,1,149.6871,4.2186Z"/><path class="cls-3" d="M139.9681,9.8985h0a.7151.7151,0,0,1-.7118-.7208h0a.7194.7194,0,0,1,.7136-.7226h0a.7151.7151,0,0,1,.7118.7208h0A.7194.7194,0,0,1,139.9681,9.8985Z"/><path class="cls-3" d="M159.1251,9.5143h0a.7151.7151,0,0,1-.7117-.7209h0a.7194.7194,0,0,1,.7136-.7226h0a.715.715,0,0,1,.7117.7208h0A.7194.7194,0,0,1,159.1251,9.5143Z"/><path class="cls-3" d="M158.8623,21.6135h0a.7151.7151,0,0,1-.7118-.7208h0a.7194.7194,0,0,1,.7136-.7226h0a.7151.7151,0,0,1,.7118.7208h0A.7194.7194,0,0,1,158.8623,21.6135Z"/><path class="cls-3" d="M149.536,27.431h0a.7151.7151,0,0,1-.7118-.7208h0a.72.72,0,0,1,.7136-.7227h0a.7151.7151,0,0,1,.7117.7209h0A.7193.7193,0,0,1,149.536,27.431Z"/><path class="cls-3" d="M140.1147,21.85h0a.7151.7151,0,0,1-.7117-.7209h0a.7194.7194,0,0,1,.7136-.7226h0a.715.715,0,0,1,.7117.7208h0A.72.72,0,0,1,140.1147,21.85Z"/></g><g class="cls-1"><polyline class="cls-2" points="216.851 22.863 220.191 17.164 223.289 22.805"/><polyline class="cls-2" points="213.872 28.286 210.758 33.766 223.249 33.75 220.019 39.648 216.804 33.758 213.872 28.286 226.169 28.27 223.249 33.75 216.804 33.758"/><polyline class="cls-2" points="226.186 28.08 229.295 33.742 223.028 33.75"/><polyline class="cls-2" points="213.793 28.424 216.851 22.698 223.076 22.69 223.285 22.69 229.309 22.682 226.2 28.36"/><polyline class="cls-2" points="217.037 22.698 210.772 22.706 213.867 28.562"/><path class="cls-2" d="M220.1984,17.5778h0a.715.715,0,0,1-.7117-.7208h0a.7194.7194,0,0,1,.7135-.7227h0a.7152.7152,0,0,1,.7118.7209h0A.7194.7194,0,0,1,220.1984,17.5778Z"/><path class="cls-2" d="M210.4794,23.2578h0a.715.715,0,0,1-.7117-.7208h0a.7194.7194,0,0,1,.7135-.7227h0a.7151.7151,0,0,1,.7118.7208h0A.7194.7194,0,0,1,210.4794,23.2578Z"/><path class="cls-2" d="M229.6359,23.2335h0a.7151.7151,0,0,1-.7117-.7209h0a.7194.7194,0,0,1,.7136-.7226h0a.715.715,0,0,1,.7117.7208h0A.72.72,0,0,1,229.6359,23.2335Z"/><path class="cls-2" d="M229.46,34.5845h0a.7152.7152,0,0,1-.7118-.7209h0a.7194.7194,0,0,1,.7136-.7226h0a.715.715,0,0,1,.7117.7208h0A.7194.7194,0,0,1,229.46,34.5845Z"/><path class="cls-2" d="M210.6269,34.6084h0a.7151.7151,0,0,1-.7118-.7208h0a.72.72,0,0,1,.7136-.7227h0a.7151.7151,0,0,1,.7117.7209h0A.7193.7193,0,0,1,210.6269,34.6084Z"/></g><g class="cls-1"><polyline class="cls-3" points="193.543 8.293 196.89 3.282 199.981 8.235"/><polyline class="cls-3" points="199.941 19.049 196.711 25.078 193.351 19.058"/><polyline class="cls-3" points="190.564 13.716 188.195 19.316 193.571 19.189"/><polyline class="cls-3" points="202.878 13.511 205.251 19.174 199.72 19.181"/><polyline class="cls-3" points="199.734 8.121 205.44 8.114 202.892 13.791"/><polyline class="cls-3" points="193.729 8.129 188.046 8.405 190.559 13.993"/><path class="cls-3" d="M196.8905,3.0085h0a.7151.7151,0,0,1-.7118-.7208h0a.72.72,0,0,1,.7136-.7227h0a.7151.7151,0,0,1,.7117.7209h0A.7193.7193,0,0,1,196.8905,3.0085Z"/><path class="cls-3" d="M187.1715,8.6885h0a.715.715,0,0,1-.7117-.7208v0a.7194.7194,0,0,1,.7136-.7226h0a.715.715,0,0,1,.7117.7208h0A.7194.7194,0,0,1,187.1715,8.6885Z"/><path class="cls-3" d="M206.3284,8.3042h0a.715.715,0,0,1-.7117-.7208h0a.7194.7194,0,0,1,.7135-.7227h0a.7151.7151,0,0,1,.7118.7209h0A.7194.7194,0,0,1,206.3284,8.3042Z"/><path class="cls-3" d="M206.0657,20.4035h0a.7152.7152,0,0,1-.7118-.7209h0a.7194.7194,0,0,1,.7136-.7226h0a.715.715,0,0,1,.7117.7208h0A.7194.7194,0,0,1,206.0657,20.4035Z"/><path class="cls-3" d="M196.7393,26.221h0a.7151.7151,0,0,1-.7117-.7209h0a.7193.7193,0,0,1,.7135-.7226h0a.7151.7151,0,0,1,.7118.7208h0A.72.72,0,0,1,196.7393,26.221Z"/><path class="cls-3" d="M187.3181,20.64h0a.715.715,0,0,1-.7117-.7208h0a.7194.7194,0,0,1,.7135-.7227h0a.7152.7152,0,0,1,.7118.7209h0A.7194.7194,0,0,1,187.3181,20.64Z"/></g><g class="cls-1"><polyline class="cls-2" points="262.157 22.863 265.497 17.164 268.594 22.805"/><polyline class="cls-2" points="259.177 28.286 256.064 33.766 268.554 33.75 265.325 39.648 262.11 33.758 259.177 28.286 271.474 28.27 268.554 33.75 262.11 33.758"/><polyline class="cls-2" points="271.491 28.08 274.601 33.742 268.334 33.75"/><polyline class="cls-2" points="259.099 28.424 262.157 22.698 268.382 22.69 268.59 22.69 274.614 22.682 271.506 28.36"/><polyline class="cls-2" points="262.342 22.698 256.078 22.706 259.172 28.562"/><path class="cls-2" d="M265.504,17.5778h0a.7151.7151,0,0,1-.7118-.7208h0a.72.72,0,0,1,.7136-.7227h0a.7152.7152,0,0,1,.7118.7209h0A.7194.7194,0,0,1,265.504,17.5778Z"/><path class="cls-2" d="M255.785,23.2578h0a.7151.7151,0,0,1-.7118-.7208h0a.72.72,0,0,1,.7136-.7227h0a.7151.7151,0,0,1,.7118.7208h0A.7194.7194,0,0,1,255.785,23.2578Z"/><path class="cls-2" d="M274.9415,23.2335h0a.7152.7152,0,0,1-.7118-.7209h0a.7194.7194,0,0,1,.7136-.7226h0a.7151.7151,0,0,1,.7118.7208h0A.72.72,0,0,1,274.9415,23.2335Z"/><path class="cls-2" d="M274.7656,34.5845h0a.7152.7152,0,0,1-.7118-.7209h0a.7194.7194,0,0,1,.7136-.7226h0a.7151.7151,0,0,1,.7118.7208h0A.72.72,0,0,1,274.7656,34.5845Z"/><path class="cls-2" d="M255.9324,34.6084h0a.7151.7151,0,0,1-.7118-.7208h0a.72.72,0,0,1,.7136-.7227h0a.7152.7152,0,0,1,.7118.7209h0A.7194.7194,0,0,1,255.9324,34.6084Z"/></g><g class="cls-1"><polyline class="cls-3" points="238.908 8.293 242.255 3.282 245.345 8.235"/><polyline class="cls-3" points="245.306 19.049 242.076 25.078 238.716 19.058"/><polyline class="cls-3" points="235.929 13.716 233.56 19.316 238.935 19.189"/><polyline class="cls-3" points="248.242 13.511 250.615 19.174 245.085 19.181"/><polyline class="cls-3" points="245.099 8.121 250.804 8.114 248.257 13.791"/><polyline class="cls-3" points="239.094 8.129 233.411 8.405 235.924 13.993"/><path class="cls-3" d="M242.2552,3.0085h0a.7151.7151,0,0,1-.7118-.7208h0a.72.72,0,0,1,.7136-.7227h0a.7151.7151,0,0,1,.7117.7209h0A.7193.7193,0,0,1,242.2552,3.0085Z"/><path class="cls-3" d="M232.5362,8.6885h0a.7151.7151,0,0,1-.7118-.7208v0a.7194.7194,0,0,1,.7136-.7226h0a.715.715,0,0,1,.7117.7208h0A.7194.7194,0,0,1,232.5362,8.6885Z"/><path class="cls-3" d="M251.6931,8.3042h0a.715.715,0,0,1-.7117-.7208h0a.7194.7194,0,0,1,.7135-.7227h0a.7151.7151,0,0,1,.7118.7209h0A.7194.7194,0,0,1,251.6931,8.3042Z"/><path class="cls-3" d="M251.43,20.4035h0a.7152.7152,0,0,1-.7118-.7209h0a.7194.7194,0,0,1,.7136-.7226h0a.715.715,0,0,1,.7117.7208h0A.7194.7194,0,0,1,251.43,20.4035Z"/><path class="cls-3" d="M242.104,26.221h0a.7151.7151,0,0,1-.7117-.7209h0a.7193.7193,0,0,1,.7135-.7226h0a.7151.7151,0,0,1,.7118.7208h0A.72.72,0,0,1,242.104,26.221Z"/><path class="cls-3" d="M232.6828,20.64h0a.715.715,0,0,1-.7117-.7208h0a.7194.7194,0,0,1,.7135-.7227h0a.7152.7152,0,0,1,.7118.7209h0A.7194.7194,0,0,1,232.6828,20.64Z"/></g><g class="cls-1"><polyline class="cls-2" points="310.243 21.798 313.583 16.099 316.68 21.74"/><polyline class="cls-2" points="307.264 27.221 304.15 32.701 316.64 32.685 313.411 38.583 310.196 32.693 307.264 27.221 319.56 27.205 316.64 32.685 310.196 32.693"/><polyline class="cls-2" points="319.577 27.015 322.687 32.677 316.42 32.685"/><polyline class="cls-2" points="307.185 27.359 310.243 21.633 316.468 21.625 316.676 21.625 322.7 21.617 319.592 27.295"/><polyline class="cls-2" points="310.429 21.633 304.164 21.641 307.258 27.497"/><path class="cls-2" d="M313.59,16.5128h0a.715.715,0,0,1-.7117-.7208v0a.7193.7193,0,0,1,.7135-.7226h0a.7151.7151,0,0,1,.7118.7208h0A.72.72,0,0,1,313.59,16.5128Z"/><path class="cls-2" d="M303.871,22.1928h0a.7152.7152,0,0,1-.7118-.7209h0a.7194.7194,0,0,1,.7136-.7226h0a.7151.7151,0,0,1,.7118.7208h0A.72.72,0,0,1,303.871,22.1928Z"/><path class="cls-2" d="M323.0275,22.1684h0a.715.715,0,0,1-.7117-.7208h0a.7194.7194,0,0,1,.7136-.7226h0a.715.715,0,0,1,.7117.7208h0A.7194.7194,0,0,1,323.0275,22.1684Z"/><path class="cls-2" d="M322.8517,33.52h0a.7152.7152,0,0,1-.7118-.7209h0a.7194.7194,0,0,1,.7136-.7226h0a.715.715,0,0,1,.7117.7208h0A.7194.7194,0,0,1,322.8517,33.52Z"/><path class="cls-2" d="M304.0185,33.5434h0a.7151.7151,0,0,1-.7117-.7209h0A.7194.7194,0,0,1,304.02,32.1h0a.715.715,0,0,1,.7117.7208h0A.7194.7194,0,0,1,304.0185,33.5434Z"/></g><g class="cls-1"><polyline class="cls-3" points="286.935 7.228 290.282 2.217 293.372 7.17"/><polyline class="cls-3" points="293.332 17.984 290.103 24.013 286.742 17.992"/><polyline class="cls-3" points="283.956 12.651 281.587 18.251 286.962 18.124"/><polyline class="cls-3" points="296.269 12.446 298.642 18.109 293.112 18.116"/><polyline class="cls-3" points="293.126 7.056 298.831 7.049 296.284 12.726"/><polyline class="cls-3" points="287.121 7.064 281.438 7.34 283.95 12.928"/><path class="cls-3" d="M290.2821,1.9435h0a.7152.7152,0,0,1-.7118-.7209h0A.7194.7194,0,0,1,290.2839.5h0a.715.715,0,0,1,.7117.7208h0A.7194.7194,0,0,1,290.2821,1.9435Z"/><path class="cls-3" d="M280.563,7.6235h0a.7151.7151,0,0,1-.7117-.7209h0a.7194.7194,0,0,1,.7136-.7226h0a.715.715,0,0,1,.7117.7208h0A.72.72,0,0,1,280.563,7.6235Z"/><path class="cls-3" d="M299.72,7.2392h0a.7151.7151,0,0,1-.7117-.7209h0a.7193.7193,0,0,1,.7135-.7226h0a.7151.7151,0,0,1,.7118.7208h0A.72.72,0,0,1,299.72,7.2392Z"/><path class="cls-3" d="M299.4573,19.3385h0a.7152.7152,0,0,1-.7118-.7209h0a.7194.7194,0,0,1,.7136-.7226h0a.715.715,0,0,1,.7117.7208h0A.7194.7194,0,0,1,299.4573,19.3385Z"/><path class="cls-3" d="M290.1309,25.1559h0a.715.715,0,0,1-.7117-.7208h0a.7193.7193,0,0,1,.7135-.7226h0a.7151.7151,0,0,1,.7118.7208h0A.7194.7194,0,0,1,290.1309,25.1559Z"/><path class="cls-3" d="M280.71,19.5751h0a.7151.7151,0,0,1-.7117-.7209h0a.7193.7193,0,0,1,.7135-.7226h0a.7151.7151,0,0,1,.7118.7208h0A.72.72,0,0,1,280.71,19.5751Z"/></g><g class="cls-1"><polyline class="cls-2" points="355.548 21.798 358.888 16.099 361.986 21.74"/><polyline class="cls-2" points="352.569 27.221 349.455 32.701 361.946 32.685 358.716 38.583 355.502 32.693 352.569 27.221 364.866 27.205 361.946 32.685 355.502 32.693"/><polyline class="cls-2" points="364.883 27.015 367.992 32.677 361.726 32.685"/><polyline class="cls-2" points="352.491 27.359 355.548 21.633 361.773 21.625 361.982 21.625 368.006 21.617 364.897 27.295"/><polyline class="cls-2" points="355.734 21.633 349.469 21.641 352.564 27.497"/><path class="cls-2" d="M358.8956,16.5128h0a.7151.7151,0,0,1-.7118-.7208v0a.7194.7194,0,0,1,.7136-.7226h0a.7151.7151,0,0,1,.7118.7208h0A.72.72,0,0,1,358.8956,16.5128Z"/><path class="cls-2" d="M349.1766,22.1928h0a.7152.7152,0,0,1-.7118-.7209h0a.7194.7194,0,0,1,.7136-.7226h0a.7151.7151,0,0,1,.7118.7208h0A.72.72,0,0,1,349.1766,22.1928Z"/><path class="cls-2" d="M368.3331,22.1684h0a.7151.7151,0,0,1-.7118-.7208h0a.7194.7194,0,0,1,.7136-.7226h0a.7151.7151,0,0,1,.7118.7208h0A.7194.7194,0,0,1,368.3331,22.1684Z"/><path class="cls-2" d="M368.1572,33.52h0a.7152.7152,0,0,1-.7118-.7209h0a.7194.7194,0,0,1,.7136-.7226h0a.7151.7151,0,0,1,.7118.7208h0A.72.72,0,0,1,368.1572,33.52Z"/><path class="cls-2" d="M349.324,33.5434h0a.7152.7152,0,0,1-.7118-.7209h0a.7194.7194,0,0,1,.7136-.7226h0a.7151.7151,0,0,1,.7118.7208h0A.72.72,0,0,1,349.324,33.5434Z"/></g><g class="cls-1"><polyline class="cls-3" points="332.299 7.228 335.646 2.217 338.737 7.17"/><polyline class="cls-3" points="338.697 17.984 335.467 24.013 332.107 17.992"/><polyline class="cls-3" points="329.32 12.651 326.952 18.251 332.327 18.124"/><polyline class="cls-3" points="341.634 12.446 344.007 18.109 338.477 18.116"/><polyline class="cls-3" points="338.491 7.056 344.196 7.049 341.648 12.726"/><polyline class="cls-3" points="332.485 7.064 326.802 7.34 329.315 12.928"/><path class="cls-3" d="M335.6468,1.9435h0a.7152.7152,0,0,1-.7118-.7209h0A.7194.7194,0,0,1,335.6486.5h0a.715.715,0,0,1,.7117.7208h0A.7194.7194,0,0,1,335.6468,1.9435Z"/><path class="cls-3" d="M325.9278,7.6235h0a.7152.7152,0,0,1-.7118-.7209h0A.7194.7194,0,0,1,325.93,6.18h0a.715.715,0,0,1,.7117.7208h0A.7194.7194,0,0,1,325.9278,7.6235Z"/><path class="cls-3" d="M345.0847,7.2392h0a.7151.7151,0,0,1-.7117-.7209h0a.7193.7193,0,0,1,.7135-.7226h0a.7151.7151,0,0,1,.7118.7208h0A.72.72,0,0,1,345.0847,7.2392Z"/><path class="cls-3" d="M344.822,19.3385h0a.7152.7152,0,0,1-.7118-.7209h0a.7194.7194,0,0,1,.7136-.7226h0a.715.715,0,0,1,.7117.7208h0A.7194.7194,0,0,1,344.822,19.3385Z"/><path class="cls-3" d="M335.4956,25.1559h0a.715.715,0,0,1-.7117-.7208h0a.7193.7193,0,0,1,.7135-.7226h0a.7151.7151,0,0,1,.7118.7208h0A.7194.7194,0,0,1,335.4956,25.1559Z"/><path class="cls-3" d="M326.0744,19.5751h0a.7151.7151,0,0,1-.7117-.7209h0a.7193.7193,0,0,1,.7135-.7226h0a.7151.7151,0,0,1,.7118.7208h0A.72.72,0,0,1,326.0744,19.5751Z"/></g><g class="cls-1"><polyline class="cls-2" points="31.232 55.883 34.572 50.185 37.67 55.825"/><polyline class="cls-2" points="28.253 61.306 25.14 66.786 37.63 66.77 34.401 72.668 31.186 66.779 28.253 61.306 40.55 61.291 37.63 66.77 31.186 66.779"/><polyline class="cls-2" points="40.567 61.101 43.676 66.763 37.41 66.771"/><polyline class="cls-2" points="28.175 61.444 31.233 55.719 37.457 55.711 37.666 55.711 43.69 55.703 40.581 61.38"/><polyline class="cls-2" points="31.418 55.719 25.153 55.727 28.248 61.583"/><path class="cls-2" d="M34.58,50.5983h0a.7151.7151,0,0,1-.7118-.7208h0a.7194.7194,0,0,1,.7136-.7226h0a.7151.7151,0,0,1,.7118.7208h0A.7194.7194,0,0,1,34.58,50.5983Z"/><path class="cls-2" d="M24.8608,56.2783h0a.7151.7151,0,0,1-.7118-.7208h0a.72.72,0,0,1,.7136-.7227h0a.7152.7152,0,0,1,.7118.7209h0A.7194.7194,0,0,1,24.8608,56.2783Z"/><path class="cls-2" d="M44.0173,56.254h0a.7151.7151,0,0,1-.7117-.7209h0a.7193.7193,0,0,1,.7135-.7226h0a.7151.7151,0,0,1,.7118.7208h0A.72.72,0,0,1,44.0173,56.254Z"/><path class="cls-2" d="M43.8414,67.605h0a.715.715,0,0,1-.7117-.7208h0a.72.72,0,0,1,.7136-.7227h0a.7151.7151,0,0,1,.7117.7209h0A.7194.7194,0,0,1,43.8414,67.605Z"/><path class="cls-2" d="M25.0082,67.6289h0a.715.715,0,0,1-.7117-.7208h0a.7194.7194,0,0,1,.7135-.7227h0a.7152.7152,0,0,1,.7118.7209h0A.7194.7194,0,0,1,25.0082,67.6289Z"/></g><g class="cls-1"><polyline class="cls-3" points="7.924 41.314 11.272 36.302 14.362 41.256"/><polyline class="cls-3" points="14.322 52.07 11.093 58.099 7.732 52.078"/><polyline class="cls-3" points="4.945 46.737 2.577 52.337 7.952 52.209"/><polyline class="cls-3" points="17.259 46.531 19.632 52.194 14.102 52.201"/><polyline class="cls-3" points="14.116 41.142 19.821 41.134 17.273 46.811"/><polyline class="cls-3" points="8.11 41.149 2.428 41.425 4.94 47.014"/><path class="cls-3" d="M11.2719,36.029h0a.715.715,0,0,1-.7117-.7208h0a.72.72,0,0,1,.7136-.7227h0a.7151.7151,0,0,1,.7117.7209h0A.7193.7193,0,0,1,11.2719,36.029Z"/><path class="cls-3" d="M1.5528,41.709h0a.715.715,0,0,1-.7117-.7208h0a.7194.7194,0,0,1,.7135-.7227h0a.7152.7152,0,0,1,.7118.7209h0A.7194.7194,0,0,1,1.5528,41.709Z"/><path class="cls-3" d="M20.71,41.3247h0a.7151.7151,0,0,1-.7118-.7208h0a.72.72,0,0,1,.7136-.7227h0a.7152.7152,0,0,1,.7118.7209h0A.7194.7194,0,0,1,20.71,41.3247Z"/><path class="cls-3" d="M20.447,53.424h0a.715.715,0,0,1-.7117-.7208h0a.7194.7194,0,0,1,.7135-.7227h0a.7152.7152,0,0,1,.7118.7209h0A.7194.7194,0,0,1,20.447,53.424Z"/><path class="cls-3" d="M11.1207,59.2415h0a.7152.7152,0,0,1-.7118-.7209h0a.7194.7194,0,0,1,.7136-.7226h0a.7151.7151,0,0,1,.7118.7208h0A.72.72,0,0,1,11.1207,59.2415Z"/><path class="cls-3" d="M1.7,53.6606h0A.7151.7151,0,0,1,.9877,52.94h0a.72.72,0,0,1,.7136-.7227h0a.7152.7152,0,0,1,.7118.7209h0A.7194.7194,0,0,1,1.7,53.6606Z"/></g><g class="cls-1"><polyline class="cls-2" points="76.538 55.883 79.878 50.185 82.976 55.825"/><polyline class="cls-2" points="73.559 61.306 70.445 66.786 82.936 66.77 79.706 72.668 76.491 66.779 73.559 61.306 85.856 61.291 82.936 66.77 76.491 66.779"/><polyline class="cls-2" points="85.873 61.101 88.982 66.763 82.715 66.771"/><polyline class="cls-2" points="73.48 61.444 76.538 55.719 82.763 55.711 82.972 55.711 88.996 55.703 85.887 61.38"/><polyline class="cls-2" points="76.724 55.719 70.459 55.727 73.554 61.583"/><path class="cls-2" d="M79.8854,50.5983h0a.7151.7151,0,0,1-.7118-.7208h0a.7194.7194,0,0,1,.7136-.7226h0a.7151.7151,0,0,1,.7118.7208h0A.7194.7194,0,0,1,79.8854,50.5983Z"/><path class="cls-2" d="M70.1664,56.2783h0a.7151.7151,0,0,1-.7118-.7208h0a.72.72,0,0,1,.7136-.7227h0a.7151.7151,0,0,1,.7117.7209h0A.7193.7193,0,0,1,70.1664,56.2783Z"/><path class="cls-2" d="M89.3229,56.254h0a.7152.7152,0,0,1-.7118-.7209h0a.7194.7194,0,0,1,.7136-.7226h0a.7151.7151,0,0,1,.7118.7208h0A.72.72,0,0,1,89.3229,56.254Z"/><path class="cls-2" d="M89.147,67.605h0a.7151.7151,0,0,1-.7118-.7208h0a.72.72,0,0,1,.7136-.7227h0a.7152.7152,0,0,1,.7118.7209h0A.7194.7194,0,0,1,89.147,67.605Z"/><path class="cls-2" d="M70.3138,67.6289h0a.7151.7151,0,0,1-.7118-.7208h0a.72.72,0,0,1,.7136-.7227h0a.7152.7152,0,0,1,.7118.7209h0A.7194.7194,0,0,1,70.3138,67.6289Z"/></g><g class="cls-1"><polyline class="cls-3" points="53.289 41.314 56.636 36.302 59.727 41.256"/><polyline class="cls-3" points="59.687 52.07 56.457 58.099 53.097 52.078"/><polyline class="cls-3" points="50.31 46.737 47.942 52.337 53.317 52.209"/><polyline class="cls-3" points="62.624 46.531 64.997 52.194 59.467 52.201"/><polyline class="cls-3" points="59.48 41.142 65.186 41.134 62.638 46.811"/><polyline class="cls-3" points="53.475 41.149 47.792 41.425 50.305 47.014"/><path class="cls-3" d="M56.6366,36.029h0a.7151.7151,0,0,1-.7118-.7208h0a.72.72,0,0,1,.7136-.7227h0a.7151.7151,0,0,1,.7117.7209h0A.7193.7193,0,0,1,56.6366,36.029Z"/><path class="cls-3" d="M46.9175,41.709h0a.715.715,0,0,1-.7117-.7208h0a.7194.7194,0,0,1,.7135-.7227h0a.7152.7152,0,0,1,.7118.7209h0A.7194.7194,0,0,1,46.9175,41.709Z"/><path class="cls-3" d="M66.0745,41.3247h0a.7151.7151,0,0,1-.7118-.7208h0a.72.72,0,0,1,.7136-.7227h0a.7152.7152,0,0,1,.7118.7209h0A.7194.7194,0,0,1,66.0745,41.3247Z"/><path class="cls-3" d="M65.8117,53.424h0a.715.715,0,0,1-.7117-.7208h0a.72.72,0,0,1,.7136-.7227h0a.7151.7151,0,0,1,.7117.7209h0A.7194.7194,0,0,1,65.8117,53.424Z"/><path class="cls-3" d="M56.4854,59.2415h0a.7152.7152,0,0,1-.7118-.7209h0a.7194.7194,0,0,1,.7136-.7226h0a.7151.7151,0,0,1,.7118.7208h0A.72.72,0,0,1,56.4854,59.2415Z"/><path class="cls-3" d="M47.0642,53.6606h0a.7151.7151,0,0,1-.7118-.7208h0a.72.72,0,0,1,.7136-.7227h0a.7152.7152,0,0,1,.7118.7209h0A.7194.7194,0,0,1,47.0642,53.6606Z"/></g><g class="cls-1"><polyline class="cls-2" points="124.624 54.818 127.964 49.12 131.062 54.76"/><polyline class="cls-2" points="121.645 60.241 118.531 65.721 131.022 65.705 127.792 71.603 124.577 65.714 121.645 60.241 133.942 60.225 131.022 65.705 124.577 65.714"/><polyline class="cls-2" points="133.959 60.036 137.068 65.698 130.801 65.706"/><polyline class="cls-2" points="121.566 60.379 124.624 54.654 130.849 54.646 131.058 54.646 137.082 54.638 133.973 60.315"/><polyline class="cls-2" points="124.81 54.654 118.545 54.661 121.64 60.518"/><path class="cls-2" d="M127.9714,49.5333h0a.7151.7151,0,0,1-.7118-.7208h0a.72.72,0,0,1,.7136-.7227h0a.7152.7152,0,0,1,.7118.7209h0A.7194.7194,0,0,1,127.9714,49.5333Z"/><path class="cls-2" d="M118.2524,55.2133h0a.7151.7151,0,0,1-.7118-.7208h0a.7194.7194,0,0,1,.7136-.7227h0a.7151.7151,0,0,1,.7118.7208h0A.72.72,0,0,1,118.2524,55.2133Z"/><path class="cls-2" d="M137.4089,55.189h0a.7151.7151,0,0,1-.7117-.7209h0a.7193.7193,0,0,1,.7135-.7226h0a.7151.7151,0,0,1,.7118.7208h0A.72.72,0,0,1,137.4089,55.189Z"/><path class="cls-2" d="M137.233,66.54h0a.7151.7151,0,0,1-.7117-.7209h0a.7194.7194,0,0,1,.7136-.7226h0a.715.715,0,0,1,.7117.7208h0A.72.72,0,0,1,137.233,66.54Z"/><path class="cls-2" d="M118.4,66.5639h0a.715.715,0,0,1-.7117-.7208h0a.7194.7194,0,0,1,.7135-.7227h0a.7152.7152,0,0,1,.7118.7209h0A.7194.7194,0,0,1,118.4,66.5639Z"/></g><g class="cls-1"><polyline class="cls-3" points="101.316 40.249 104.663 35.237 107.754 40.191"/><polyline class="cls-3" points="107.714 51.005 104.484 57.034 101.124 51.013"/><polyline class="cls-3" points="98.337 45.672 95.968 51.272 101.344 51.144"/><polyline class="cls-3" points="110.651 45.466 113.024 51.129 107.493 51.136"/><polyline class="cls-3" points="107.507 40.077 113.213 40.069 110.665 45.746"/><polyline class="cls-3" points="101.502 40.084 95.819 40.36 98.332 45.949"/><path class="cls-3" d="M104.6634,34.964h0a.715.715,0,0,1-.7117-.7208h0a.72.72,0,0,1,.7136-.7227h0a.715.715,0,0,1,.7117.7209h0A.7194.7194,0,0,1,104.6634,34.964Z"/><path class="cls-3" d="M94.9444,40.644h0a.715.715,0,0,1-.7117-.7209h0a.7193.7193,0,0,1,.7135-.7226h0a.7151.7151,0,0,1,.7118.7208h0A.72.72,0,0,1,94.9444,40.644Z"/><path class="cls-3" d="M114.1014,40.26h0a.7151.7151,0,0,1-.7118-.7208h0a.72.72,0,0,1,.7136-.7227h0a.7151.7151,0,0,1,.7118.7209h0A.7194.7194,0,0,1,114.1014,40.26Z"/><path class="cls-3" d="M113.8386,52.359h0a.7151.7151,0,0,1-.7117-.7209h0a.7193.7193,0,0,1,.7135-.7226h0a.7151.7151,0,0,1,.7118.7208h0A.72.72,0,0,1,113.8386,52.359Z"/><path class="cls-3" d="M104.5123,58.1764h0a.7151.7151,0,0,1-.7118-.7208h0a.7194.7194,0,0,1,.7136-.7226h0a.7151.7151,0,0,1,.7118.7208h0A.7194.7194,0,0,1,104.5123,58.1764Z"/><path class="cls-3" d="M95.0911,52.5956h0a.7151.7151,0,0,1-.7118-.7208h0a.72.72,0,0,1,.7136-.7227h0a.7151.7151,0,0,1,.7118.7209h0A.7194.7194,0,0,1,95.0911,52.5956Z"/></g><g class="cls-1"><polyline class="cls-2" points="169.93 54.818 173.27 49.12 176.367 54.76"/><polyline class="cls-2" points="166.95 60.241 163.837 65.721 176.327 65.705 173.098 71.603 169.883 65.714 166.95 60.241 179.247 60.225 176.327 65.705 169.883 65.714"/><polyline class="cls-2" points="179.264 60.036 182.373 65.698 176.107 65.706"/><polyline class="cls-2" points="166.872 60.379 169.93 54.654 176.155 54.646 176.363 54.646 182.387 54.638 179.279 60.315"/><polyline class="cls-2" points="170.115 54.654 163.851 54.661 166.945 60.518"/><path class="cls-2" d="M173.277,49.5333h0a.7151.7151,0,0,1-.7118-.7208h0a.72.72,0,0,1,.7136-.7227h0a.7152.7152,0,0,1,.7118.7209h0A.7194.7194,0,0,1,173.277,49.5333Z"/><path class="cls-2" d="M163.558,55.2133h0a.7151.7151,0,0,1-.7118-.7208h0a.7194.7194,0,0,1,.7136-.7227h0a.715.715,0,0,1,.7117.7208h0A.7194.7194,0,0,1,163.558,55.2133Z"/><path class="cls-2" d="M182.7145,55.189h0a.7152.7152,0,0,1-.7118-.7209h0a.7194.7194,0,0,1,.7136-.7226h0a.7151.7151,0,0,1,.7118.7208h0A.72.72,0,0,1,182.7145,55.189Z"/><path class="cls-2" d="M182.5386,66.54h0a.7152.7152,0,0,1-.7118-.7209h0a.7194.7194,0,0,1,.7136-.7226h0a.7151.7151,0,0,1,.7118.7208h0A.72.72,0,0,1,182.5386,66.54Z"/><path class="cls-2" d="M163.7054,66.5639h0a.7151.7151,0,0,1-.7118-.7208h0a.72.72,0,0,1,.7136-.7227h0a.7152.7152,0,0,1,.7118.7209h0A.7194.7194,0,0,1,163.7054,66.5639Z"/></g><g class="cls-1"><polyline class="cls-3" points="146.681 40.249 150.028 35.237 153.118 40.191"/><polyline class="cls-3" points="153.078 51.005 149.849 57.034 146.489 51.013"/><polyline class="cls-3" points="143.702 45.672 141.333 51.272 146.708 51.144"/><polyline class="cls-3" points="156.015 45.466 158.388 51.129 152.858 51.136"/><polyline class="cls-3" points="152.872 40.077 158.577 40.069 156.03 45.746"/><polyline class="cls-3" points="146.867 40.084 141.184 40.36 143.697 45.949"/><path class="cls-3" d="M150.0282,34.964h0a.715.715,0,0,1-.7117-.7208h0a.72.72,0,0,1,.7136-.7227h0a.715.715,0,0,1,.7117.7209h0A.7193.7193,0,0,1,150.0282,34.964Z"/><path class="cls-3" d="M140.3091,40.644h0a.715.715,0,0,1-.7117-.7209h0a.7193.7193,0,0,1,.7135-.7226h0a.7151.7151,0,0,1,.7118.7208h0A.72.72,0,0,1,140.3091,40.644Z"/><path class="cls-3" d="M159.4661,40.26h0a.7151.7151,0,0,1-.7118-.7208h0a.72.72,0,0,1,.7136-.7227h0a.7151.7151,0,0,1,.7118.7209h0A.7194.7194,0,0,1,159.4661,40.26Z"/><path class="cls-3" d="M159.2033,52.359h0a.7151.7151,0,0,1-.7117-.7209h0a.7193.7193,0,0,1,.7135-.7226h0a.715.715,0,0,1,.7117.7208h0A.72.72,0,0,1,159.2033,52.359Z"/><path class="cls-3" d="M149.877,58.1764h0a.7151.7151,0,0,1-.7118-.7208h0a.7194.7194,0,0,1,.7136-.7226h0a.7151.7151,0,0,1,.7118.7208h0A.7194.7194,0,0,1,149.877,58.1764Z"/><path class="cls-3" d="M140.4558,52.5956h0a.7151.7151,0,0,1-.7118-.7208h0a.72.72,0,0,1,.7136-.7227h0a.7151.7151,0,0,1,.7118.7209h0A.7194.7194,0,0,1,140.4558,52.5956Z"/></g><g class="cls-1"><polyline class="cls-2" points="217.192 53.608 220.532 47.91 223.63 53.55"/><polyline class="cls-2" points="214.213 59.031 211.099 64.511 223.59 64.495 220.36 70.393 217.146 64.504 214.213 59.031 226.51 59.015 223.59 64.495 217.146 64.504"/><polyline class="cls-2" points="226.527 58.826 229.636 64.488 223.37 64.496"/><polyline class="cls-2" points="214.135 59.169 217.192 53.444 223.417 53.436 223.626 53.436 229.65 53.428 226.541 59.105"/><polyline class="cls-2" points="217.378 53.443 211.113 53.451 214.208 59.308"/><path class="cls-2" d="M220.54,48.3232h0a.7151.7151,0,0,1-.7118-.7208h0a.7194.7194,0,0,1,.7136-.7226h0a.7151.7151,0,0,1,.7118.7208h0A.7194.7194,0,0,1,220.54,48.3232Z"/><path class="cls-2" d="M210.8205,54.0032h0a.7151.7151,0,0,1-.7118-.7208h0a.72.72,0,0,1,.7136-.7227h0a.7152.7152,0,0,1,.7118.7209h0A.7194.7194,0,0,1,210.8205,54.0032Z"/><path class="cls-2" d="M229.977,53.9789h0a.7151.7151,0,0,1-.7118-.7208h0a.7194.7194,0,0,1,.7136-.7227h0a.7151.7151,0,0,1,.7118.7208h0A.72.72,0,0,1,229.977,53.9789Z"/><path class="cls-2" d="M229.8011,65.33h0a.715.715,0,0,1-.7117-.7208h0a.7194.7194,0,0,1,.7135-.7227h0a.7152.7152,0,0,1,.7118.7209h0A.7194.7194,0,0,1,229.8011,65.33Z"/><path class="cls-2" d="M210.9679,65.3538h0a.7151.7151,0,0,1-.7118-.7208h0a.7194.7194,0,0,1,.7136-.7226h0a.7151.7151,0,0,1,.7118.7208h0A.7194.7194,0,0,1,210.9679,65.3538Z"/></g><g class="cls-1"><polyline class="cls-3" points="193.884 39.039 197.231 34.027 200.322 38.981"/><polyline class="cls-3" points="200.282 49.795 197.052 55.824 193.692 49.803"/><polyline class="cls-3" points="190.905 44.462 188.536 50.062 193.912 49.934"/><polyline class="cls-3" points="203.219 44.256 205.592 49.919 200.062 49.926"/><polyline class="cls-3" points="200.075 38.867 205.781 38.859 203.233 44.536"/><polyline class="cls-3" points="194.07 38.874 188.387 39.15 190.9 44.738"/><path class="cls-3" d="M197.2315,33.7539h0a.715.715,0,0,1-.7117-.7208h0a.7193.7193,0,0,1,.7135-.7226h0a.7151.7151,0,0,1,.7118.7208h0A.7194.7194,0,0,1,197.2315,33.7539Z"/><path class="cls-3" d="M187.5125,39.4339h0a.7151.7151,0,0,1-.7118-.7208h0a.72.72,0,0,1,.7136-.7227h0a.7152.7152,0,0,1,.7118.7209h0A.7194.7194,0,0,1,187.5125,39.4339Z"/><path class="cls-3" d="M206.67,39.05h0a.7151.7151,0,0,1-.7118-.7208h0a.7194.7194,0,0,1,.7136-.7226h0a.7151.7151,0,0,1,.7118.7208h0A.7194.7194,0,0,1,206.67,39.05Z"/><path class="cls-3" d="M206.4067,51.1489h0a.7151.7151,0,0,1-.7118-.7208h0a.72.72,0,0,1,.7136-.7227h0a.7152.7152,0,0,1,.7118.7209h0A.7194.7194,0,0,1,206.4067,51.1489Z"/><path class="cls-3" d="M197.08,56.9664h0a.7151.7151,0,0,1-.7118-.7209h0a.7194.7194,0,0,1,.7136-.7226h0a.7151.7151,0,0,1,.7118.7208h0A.72.72,0,0,1,197.08,56.9664Z"/><path class="cls-3" d="M187.6592,51.3855h0a.7151.7151,0,0,1-.7118-.7208h0a.7194.7194,0,0,1,.7136-.7226h0a.7151.7151,0,0,1,.7118.7208h0A.7194.7194,0,0,1,187.6592,51.3855Z"/></g><g class="cls-1"><polyline class="cls-2" points="262.498 53.608 265.838 47.91 268.935 53.55"/><polyline class="cls-2" points="259.519 59.031 256.405 64.511 268.895 64.495 265.666 70.393 262.451 64.504 259.519 59.031 271.815 59.015 268.895 64.495 262.451 64.504"/><polyline class="cls-2" points="271.832 58.826 274.942 64.488 268.675 64.496"/><polyline class="cls-2" points="259.44 59.169 262.498 53.444 268.723 53.436 268.931 53.436 274.955 53.428 271.847 59.105"/><polyline class="cls-2" points="262.684 53.443 256.419 53.451 259.513 59.308"/><path class="cls-2" d="M265.8451,48.3232h0a.715.715,0,0,1-.7117-.7208h0a.7194.7194,0,0,1,.7136-.7226h0a.715.715,0,0,1,.7117.7208h0A.7193.7193,0,0,1,265.8451,48.3232Z"/><path class="cls-2" d="M256.126,54.0032h0a.715.715,0,0,1-.7117-.7208h0a.7194.7194,0,0,1,.7135-.7227h0a.7152.7152,0,0,1,.7118.7209h0A.7194.7194,0,0,1,256.126,54.0032Z"/><path class="cls-2" d="M275.2826,53.9789h0a.7151.7151,0,0,1-.7118-.7208h0a.7194.7194,0,0,1,.7136-.7227h0a.715.715,0,0,1,.7117.7208h0A.7194.7194,0,0,1,275.2826,53.9789Z"/><path class="cls-2" d="M275.1067,65.33h0a.7151.7151,0,0,1-.7118-.7208h0a.72.72,0,0,1,.7136-.7227h0a.7152.7152,0,0,1,.7118.7209h0A.7194.7194,0,0,1,275.1067,65.33Z"/><path class="cls-2" d="M256.2735,65.3538h0a.7151.7151,0,0,1-.7118-.7208h0a.7194.7194,0,0,1,.7136-.7226h0a.715.715,0,0,1,.7117.7208h0A.7193.7193,0,0,1,256.2735,65.3538Z"/></g><g class="cls-1"><polyline class="cls-3" points="239.249 39.039 242.596 34.027 245.686 38.981"/><polyline class="cls-3" points="245.647 49.795 242.417 55.824 239.057 49.803"/><polyline class="cls-3" points="236.27 44.462 233.901 50.062 239.276 49.934"/><polyline class="cls-3" points="248.583 44.256 250.956 49.919 245.426 49.926"/><polyline class="cls-3" points="245.44 38.867 251.145 38.859 248.598 44.536"/><polyline class="cls-3" points="239.435 38.874 233.752 39.15 236.265 44.738"/><path class="cls-3" d="M242.5962,33.7539h0a.715.715,0,0,1-.7117-.7208h0a.7193.7193,0,0,1,.7135-.7226h0a.7151.7151,0,0,1,.7118.7208h0A.7194.7194,0,0,1,242.5962,33.7539Z"/><path class="cls-3" d="M232.8772,39.4339h0a.7151.7151,0,0,1-.7118-.7208h0a.72.72,0,0,1,.7136-.7227h0a.7152.7152,0,0,1,.7118.7209h0A.7194.7194,0,0,1,232.8772,39.4339Z"/><path class="cls-3" d="M252.0342,39.05h0a.7151.7151,0,0,1-.7118-.7208h0a.7194.7194,0,0,1,.7136-.7226h0a.7151.7151,0,0,1,.7118.7208h0A.7194.7194,0,0,1,252.0342,39.05Z"/><path class="cls-3" d="M251.7714,51.1489h0a.7151.7151,0,0,1-.7118-.7208h0a.72.72,0,0,1,.7136-.7227h0a.7152.7152,0,0,1,.7118.7209h0A.7194.7194,0,0,1,251.7714,51.1489Z"/><path class="cls-3" d="M242.4451,56.9664h0a.7151.7151,0,0,1-.7118-.7209h0a.7194.7194,0,0,1,.7136-.7226h0a.7151.7151,0,0,1,.7118.7208h0A.72.72,0,0,1,242.4451,56.9664Z"/><path class="cls-3" d="M233.0239,51.3855h0a.7151.7151,0,0,1-.7118-.7208h0a.7194.7194,0,0,1,.7136-.7226h0a.7151.7151,0,0,1,.7118.7208h0A.7194.7194,0,0,1,233.0239,51.3855Z"/></g><g class="cls-1"><polyline class="cls-2" points="310.584 52.543 313.924 46.845 317.021 52.485"/><polyline class="cls-2" points="307.605 57.966 304.491 63.446 316.981 63.43 313.752 69.328 310.537 63.438 307.605 57.966 319.901 57.95 316.981 63.43 310.537 63.438"/><polyline class="cls-2" points="319.918 57.761 323.028 63.423 316.761 63.431"/><polyline class="cls-2" points="307.526 58.104 310.584 52.379 316.809 52.371 317.017 52.371 323.041 52.363 319.933 58.04"/><polyline class="cls-2" points="310.77 52.378 304.505 52.386 307.599 58.243"/><path class="cls-2" d="M313.9311,47.2582h0a.7151.7151,0,0,1-.7118-.7208h0a.72.72,0,0,1,.7136-.7227h0a.7152.7152,0,0,1,.7118.7209h0A.7194.7194,0,0,1,313.9311,47.2582Z"/><path class="cls-2" d="M304.2121,52.9382h0a.7151.7151,0,0,1-.7118-.7208h0a.72.72,0,0,1,.7136-.7227h0a.7151.7151,0,0,1,.7118.7209h0A.7194.7194,0,0,1,304.2121,52.9382Z"/><path class="cls-2" d="M323.3686,52.9139h0a.7152.7152,0,0,1-.7118-.7209h0a.7194.7194,0,0,1,.7136-.7226h0a.7151.7151,0,0,1,.7118.7208h0A.72.72,0,0,1,323.3686,52.9139Z"/><path class="cls-2" d="M323.1927,64.2649h0a.715.715,0,0,1-.7117-.7208v0a.7193.7193,0,0,1,.7135-.7226h0a.7151.7151,0,0,1,.7118.7208h0A.72.72,0,0,1,323.1927,64.2649Z"/><path class="cls-2" d="M304.36,64.2888h0a.7151.7151,0,0,1-.7118-.7208h0a.72.72,0,0,1,.7136-.7227h0a.7152.7152,0,0,1,.7118.7209h0A.7194.7194,0,0,1,304.36,64.2888Z"/></g><g class="cls-1"><polyline class="cls-3" points="287.276 37.974 290.623 32.962 293.713 37.916"/><polyline class="cls-3" points="293.673 48.73 290.444 54.759 287.084 48.738"/><polyline class="cls-3" points="284.297 43.397 281.928 48.997 287.303 48.869"/><polyline class="cls-3" points="296.61 43.191 298.983 48.854 293.453 48.861"/><polyline class="cls-3" points="293.467 37.802 299.172 37.794 296.625 43.471"/><polyline class="cls-3" points="287.462 37.809 281.779 38.085 284.291 43.673"/><path class="cls-3" d="M290.6231,32.6889h0a.715.715,0,0,1-.7117-.7208h0a.7194.7194,0,0,1,.7135-.7227h0a.7152.7152,0,0,1,.7118.7209h0A.7194.7194,0,0,1,290.6231,32.6889Z"/><path class="cls-3" d="M280.9041,38.3689h0a.7151.7151,0,0,1-.7118-.7208h0a.72.72,0,0,1,.7136-.7227h0a.7151.7151,0,0,1,.7118.7208h0A.72.72,0,0,1,280.9041,38.3689Z"/><path class="cls-3" d="M300.0611,37.9846h0a.7151.7151,0,0,1-.7118-.7208h0a.72.72,0,0,1,.7136-.7227h0a.7152.7152,0,0,1,.7118.7209h0A.7194.7194,0,0,1,300.0611,37.9846Z"/><path class="cls-3" d="M299.7983,50.0839h0a.7151.7151,0,0,1-.7118-.7208v0A.7194.7194,0,0,1,299.8,48.64h0a.7151.7151,0,0,1,.7118.7208h0A.72.72,0,0,1,299.7983,50.0839Z"/><path class="cls-3" d="M290.472,55.9014h0a.7152.7152,0,0,1-.7118-.7209h0a.7194.7194,0,0,1,.7136-.7226h0a.7151.7151,0,0,1,.7118.7208h0A.72.72,0,0,1,290.472,55.9014Z"/><path class="cls-3" d="M281.0508,50.3205h0a.7151.7151,0,0,1-.7118-.7208h0a.72.72,0,0,1,.7136-.7227h0a.7152.7152,0,0,1,.7118.7209h0A.7194.7194,0,0,1,281.0508,50.3205Z"/></g><g class="cls-1"><polyline class="cls-2" points="355.889 52.543 359.229 46.845 362.327 52.485"/><polyline class="cls-2" points="352.91 57.966 349.796 63.446 362.287 63.43 359.057 69.328 355.843 63.438 352.91 57.966 365.207 57.95 362.287 63.43 355.843 63.438"/><polyline class="cls-2" points="365.224 57.761 368.333 63.423 362.067 63.431"/><polyline class="cls-2" points="352.832 58.104 355.889 52.379 362.114 52.371 362.323 52.371 368.347 52.363 365.238 58.04"/><polyline class="cls-2" points="356.075 52.378 349.81 52.386 352.905 58.243"/><path class="cls-2" d="M359.2366,47.2582h0a.715.715,0,0,1-.7117-.7208h0a.72.72,0,0,1,.7136-.7227h0a.7151.7151,0,0,1,.7117.7209h0A.7194.7194,0,0,1,359.2366,47.2582Z"/><path class="cls-2" d="M349.5176,52.9382h0a.715.715,0,0,1-.7117-.7208h0a.7194.7194,0,0,1,.7135-.7227h0a.7151.7151,0,0,1,.7118.7209h0A.7194.7194,0,0,1,349.5176,52.9382Z"/><path class="cls-2" d="M368.6742,52.9139h0a.7152.7152,0,0,1-.7118-.7209h0a.7194.7194,0,0,1,.7136-.7226h0a.715.715,0,0,1,.7117.7208h0A.7194.7194,0,0,1,368.6742,52.9139Z"/><path class="cls-2" d="M368.4983,64.2649h0a.7151.7151,0,0,1-.7118-.7208v0a.7194.7194,0,0,1,.7136-.7226h0a.7151.7151,0,0,1,.7118.7208h0A.72.72,0,0,1,368.4983,64.2649Z"/><path class="cls-2" d="M349.6651,64.2888h0a.7151.7151,0,0,1-.7118-.7208h0a.72.72,0,0,1,.7136-.7227h0a.7151.7151,0,0,1,.7117.7209h0A.7193.7193,0,0,1,349.6651,64.2888Z"/></g><g class="cls-1"><polyline class="cls-3" points="332.64 37.974 335.987 32.962 339.078 37.916"/><polyline class="cls-3" points="339.038 48.73 335.809 54.759 332.448 48.738"/><polyline class="cls-3" points="329.661 43.397 327.293 48.997 332.668 48.869"/><polyline class="cls-3" points="341.975 43.191 344.348 48.854 338.818 48.861"/><polyline class="cls-3" points="338.832 37.802 344.537 37.794 341.989 43.471"/><polyline class="cls-3" points="332.826 37.809 327.144 38.085 329.656 43.673"/><path class="cls-3" d="M335.9878,32.6889h0a.715.715,0,0,1-.7117-.7208h0a.7194.7194,0,0,1,.7135-.7227h0a.7152.7152,0,0,1,.7118.7209h0A.7194.7194,0,0,1,335.9878,32.6889Z"/><path class="cls-3" d="M326.2688,38.3689h0a.7151.7151,0,0,1-.7118-.7208h0a.72.72,0,0,1,.7136-.7227h0a.7151.7151,0,0,1,.7118.7208h0A.72.72,0,0,1,326.2688,38.3689Z"/><path class="cls-3" d="M345.4258,37.9846h0a.7151.7151,0,0,1-.7118-.7208h0a.72.72,0,0,1,.7136-.7227h0a.7152.7152,0,0,1,.7118.7209h0A.7194.7194,0,0,1,345.4258,37.9846Z"/><path class="cls-3" d="M345.163,50.0839h0a.7151.7151,0,0,1-.7118-.7208v0a.7194.7194,0,0,1,.7136-.7226h0a.7151.7151,0,0,1,.7118.7208h0A.72.72,0,0,1,345.163,50.0839Z"/><path class="cls-3" d="M335.8367,55.9014h0a.7152.7152,0,0,1-.7118-.7209h0a.7194.7194,0,0,1,.7136-.7226h0a.7151.7151,0,0,1,.7118.7208h0A.72.72,0,0,1,335.8367,55.9014Z"/><path class="cls-3" d="M326.4155,50.3205h0a.7151.7151,0,0,1-.7118-.7208h0a.72.72,0,0,1,.7136-.7227h0a.7152.7152,0,0,1,.7118.7209h0A.7194.7194,0,0,1,326.4155,50.3205Z"/></g><g class="cls-1"><polyline class="cls-2" points="31.232 89.969 34.572 84.27 37.67 89.911"/><polyline class="cls-2" points="28.253 95.392 25.14 100.872 37.63 100.856 34.401 106.754 31.186 100.864 28.253 95.392 40.55 95.376 37.63 100.856 31.186 100.864"/><polyline class="cls-2" points="40.567 95.186 43.676 100.848 37.41 100.856"/><polyline class="cls-2" points="28.175 95.53 31.233 89.804 37.457 89.796 37.666 89.796 43.69 89.789 40.581 95.466"/><polyline class="cls-2" points="31.418 89.804 25.153 89.812 28.248 95.668"/><path class="cls-2" d="M34.58,84.6839h0a.7152.7152,0,0,1-.7118-.7209h0a.7194.7194,0,0,1,.7136-.7226h0a.7151.7151,0,0,1,.7118.7208h0A.72.72,0,0,1,34.58,84.6839Z"/><path class="cls-2" d="M24.8608,90.3639h0a.7152.7152,0,0,1-.7118-.7209h0a.7194.7194,0,0,1,.7136-.7226h0a.7151.7151,0,0,1,.7118.7208h0A.72.72,0,0,1,24.8608,90.3639Z"/><path class="cls-2" d="M44.0173,90.34h0a.715.715,0,0,1-.7117-.7208h0a.7194.7194,0,0,1,.7135-.7227h0a.7152.7152,0,0,1,.7118.7209h0A.7194.7194,0,0,1,44.0173,90.34Z"/><path class="cls-2" d="M43.8414,101.6905h0a.715.715,0,0,1-.7117-.7208h0a.7194.7194,0,0,1,.7136-.7226h0a.715.715,0,0,1,.7117.7208h0A.7194.7194,0,0,1,43.8414,101.6905Z"/><path class="cls-2" d="M25.0082,101.7145h0a.7151.7151,0,0,1-.7117-.7209h0a.7193.7193,0,0,1,.7135-.7226h0a.7151.7151,0,0,1,.7118.7208h0A.72.72,0,0,1,25.0082,101.7145Z"/></g><g class="cls-1"><polyline class="cls-3" points="7.924 75.399 11.272 70.388 14.362 75.342"/><polyline class="cls-3" points="14.322 86.155 11.093 92.184 7.732 86.164"/><polyline class="cls-3" points="4.945 80.822 2.577 86.422 7.952 86.295"/><polyline class="cls-3" points="17.259 80.617 19.632 86.28 14.102 86.287"/><polyline class="cls-3" points="14.116 75.227 19.821 75.22 17.273 80.897"/><polyline class="cls-3" points="8.11 75.235 2.428 75.511 4.94 81.099"/><path class="cls-3" d="M11.2719,70.1146h0a.7151.7151,0,0,1-.7117-.7209h0a.7194.7194,0,0,1,.7136-.7226h0a.715.715,0,0,1,.7117.7208h0A.7194.7194,0,0,1,11.2719,70.1146Z"/><path class="cls-3" d="M1.5528,75.7945h0a.715.715,0,0,1-.7117-.7208h0a.7193.7193,0,0,1,.7135-.7226h0a.7151.7151,0,0,1,.7118.7208h0A.7194.7194,0,0,1,1.5528,75.7945Z"/><path class="cls-3" d="M20.71,75.41h0a.7152.7152,0,0,1-.7118-.7209h0a.7194.7194,0,0,1,.7136-.7226h0a.7151.7151,0,0,1,.7118.7208h0A.72.72,0,0,1,20.71,75.41Z"/><path class="cls-3" d="M20.447,87.51h0a.715.715,0,0,1-.7117-.7208h0a.7193.7193,0,0,1,.7135-.7226h0a.7151.7151,0,0,1,.7118.7208h0A.7194.7194,0,0,1,20.447,87.51Z"/><path class="cls-3" d="M11.1207,93.327h0a.7151.7151,0,0,1-.7118-.7208h0a.72.72,0,0,1,.7136-.7227h0a.7152.7152,0,0,1,.7118.7209h0A.7194.7194,0,0,1,11.1207,93.327Z"/><path class="cls-3" d="M1.7,87.7462h0a.7152.7152,0,0,1-.7118-.7209h0a.7194.7194,0,0,1,.7136-.7226h0a.7151.7151,0,0,1,.7118.7208h0A.72.72,0,0,1,1.7,87.7462Z"/></g><g class="cls-1"><polyline class="cls-2" points="76.538 89.969 79.878 84.27 82.976 89.911"/><polyline class="cls-2" points="73.559 95.392 70.445 100.872 82.936 100.856 79.706 106.754 76.491 100.864 73.559 95.392 85.856 95.376 82.936 100.856 76.491 100.864"/><polyline class="cls-2" points="85.873 95.186 88.982 100.848 82.715 100.856"/><polyline class="cls-2" points="73.48 95.53 76.538 89.804 82.763 89.796 82.972 89.796 88.996 89.789 85.887 95.466"/><polyline class="cls-2" points="76.724 89.804 70.459 89.812 73.554 95.668"/><path class="cls-2" d="M79.8854,84.6839h0a.7152.7152,0,0,1-.7118-.7209h0a.7194.7194,0,0,1,.7136-.7226h0a.7151.7151,0,0,1,.7118.7208h0A.72.72,0,0,1,79.8854,84.6839Z"/><path class="cls-2" d="M70.1664,90.3639h0a.7152.7152,0,0,1-.7118-.7209h0a.7194.7194,0,0,1,.7136-.7226h0a.715.715,0,0,1,.7117.7208h0A.7194.7194,0,0,1,70.1664,90.3639Z"/><path class="cls-2" d="M89.3229,90.34h0a.7151.7151,0,0,1-.7118-.7208h0a.72.72,0,0,1,.7136-.7227h0a.7152.7152,0,0,1,.7118.7209h0A.7194.7194,0,0,1,89.3229,90.34Z"/><path class="cls-2" d="M89.147,101.6905h0a.7151.7151,0,0,1-.7118-.7208h0a.7194.7194,0,0,1,.7136-.7226h0a.7151.7151,0,0,1,.7118.7208h0A.7194.7194,0,0,1,89.147,101.6905Z"/><path class="cls-2" d="M70.3138,101.7145h0a.7152.7152,0,0,1-.7118-.7209h0a.7194.7194,0,0,1,.7136-.7226h0a.7151.7151,0,0,1,.7118.7208h0A.72.72,0,0,1,70.3138,101.7145Z"/></g><g class="cls-1"><polyline class="cls-3" points="53.289 75.399 56.636 70.388 59.727 75.342"/><polyline class="cls-3" points="59.687 86.155 56.457 92.184 53.097 86.164"/><polyline class="cls-3" points="50.31 80.822 47.942 86.422 53.317 86.295"/><polyline class="cls-3" points="62.624 80.617 64.997 86.28 59.467 86.287"/><polyline class="cls-3" points="59.48 75.227 65.186 75.22 62.638 80.897"/><polyline class="cls-3" points="53.475 75.235 47.792 75.511 50.305 81.099"/><path class="cls-3" d="M56.6366,70.1146h0a.7152.7152,0,0,1-.7118-.7209h0a.7194.7194,0,0,1,.7136-.7226h0a.715.715,0,0,1,.7117.7208h0A.7194.7194,0,0,1,56.6366,70.1146Z"/><path class="cls-3" d="M46.9175,75.7945h0a.715.715,0,0,1-.7117-.7208h0a.7193.7193,0,0,1,.7135-.7226h0a.7151.7151,0,0,1,.7118.7208h0A.7194.7194,0,0,1,46.9175,75.7945Z"/><path class="cls-3" d="M66.0745,75.41h0a.7152.7152,0,0,1-.7118-.7209h0a.7194.7194,0,0,1,.7136-.7226h0a.7151.7151,0,0,1,.7118.7208h0A.72.72,0,0,1,66.0745,75.41Z"/><path class="cls-3" d="M65.8117,87.51h0a.715.715,0,0,1-.7117-.7208h0a.7194.7194,0,0,1,.7136-.7226h0a.715.715,0,0,1,.7117.7208h0A.7194.7194,0,0,1,65.8117,87.51Z"/><path class="cls-3" d="M56.4854,93.327h0a.7151.7151,0,0,1-.7118-.7208h0a.72.72,0,0,1,.7136-.7227h0a.7152.7152,0,0,1,.7118.7209h0A.7194.7194,0,0,1,56.4854,93.327Z"/><path class="cls-3" d="M47.0642,87.7462h0a.7152.7152,0,0,1-.7118-.7209h0a.7194.7194,0,0,1,.7136-.7226h0a.7151.7151,0,0,1,.7118.7208h0A.72.72,0,0,1,47.0642,87.7462Z"/></g><g class="cls-1"><polyline class="cls-2" points="124.624 88.904 127.964 83.205 131.062 88.846"/><polyline class="cls-2" points="121.645 94.327 118.531 99.807 131.022 99.791 127.792 105.689 124.577 99.799 121.645 94.327 133.942 94.311 131.022 99.791 124.577 99.799"/><polyline class="cls-2" points="133.959 94.121 137.068 99.783 130.801 99.791"/><polyline class="cls-2" points="121.566 94.465 124.624 88.739 130.849 88.731 131.058 88.731 137.082 88.723 133.973 94.401"/><polyline class="cls-2" points="124.81 88.739 118.545 88.747 121.64 94.603"/><path class="cls-2" d="M127.9714,83.6188h0a.7151.7151,0,0,1-.7118-.7208h0a.7194.7194,0,0,1,.7136-.7226h0a.7151.7151,0,0,1,.7118.7208h0A.7194.7194,0,0,1,127.9714,83.6188Z"/><path class="cls-2" d="M118.2524,89.2988h0a.7151.7151,0,0,1-.7118-.7208h0a.7194.7194,0,0,1,.7136-.7226h0a.7151.7151,0,0,1,.7118.7208h0A.7194.7194,0,0,1,118.2524,89.2988Z"/><path class="cls-2" d="M137.4089,89.2745h0a.715.715,0,0,1-.7117-.7208h0a.7194.7194,0,0,1,.7135-.7227h0a.7151.7151,0,0,1,.7118.7209h0A.7194.7194,0,0,1,137.4089,89.2745Z"/><path class="cls-2" d="M137.233,100.6255h0a.715.715,0,0,1-.7117-.7208h0a.72.72,0,0,1,.7136-.7227h0a.7151.7151,0,0,1,.7117.7209h0A.7194.7194,0,0,1,137.233,100.6255Z"/><path class="cls-2" d="M118.4,100.6494h0a.715.715,0,0,1-.7117-.7208h0a.7193.7193,0,0,1,.7135-.7226h0a.7151.7151,0,0,1,.7118.7208h0A.7194.7194,0,0,1,118.4,100.6494Z"/></g><g class="cls-1"><polyline class="cls-3" points="101.316 74.334 104.663 69.323 107.754 74.277"/><polyline class="cls-3" points="107.714 85.09 104.484 91.119 101.124 85.099"/><polyline class="cls-3" points="98.337 79.757 95.968 85.357 101.344 85.23"/><polyline class="cls-3" points="110.651 79.552 113.024 85.215 107.493 85.222"/><polyline class="cls-3" points="107.507 74.162 113.213 74.155 110.665 79.832"/><polyline class="cls-3" points="101.502 74.17 95.819 74.446 98.332 80.034"/><path class="cls-3" d="M104.6634,69.05h0a.715.715,0,0,1-.7117-.7208h0a.7194.7194,0,0,1,.7136-.7226h0a.715.715,0,0,1,.7117.7208h0A.7194.7194,0,0,1,104.6634,69.05Z"/><path class="cls-3" d="M94.9444,74.73h0a.715.715,0,0,1-.7117-.7208h0a.7193.7193,0,0,1,.7135-.7226h0a.715.715,0,0,1,.7118.7208h0A.7194.7194,0,0,1,94.9444,74.73Z"/><path class="cls-3" d="M114.1014,74.3452h0a.7151.7151,0,0,1-.7118-.7208h0a.7194.7194,0,0,1,.7136-.7226h0a.7151.7151,0,0,1,.7118.7208h0A.7194.7194,0,0,1,114.1014,74.3452Z"/><path class="cls-3" d="M113.8386,86.4445h0a.715.715,0,0,1-.7117-.7208h0a.7194.7194,0,0,1,.7135-.7227h0a.7152.7152,0,0,1,.7118.7209h0A.7194.7194,0,0,1,113.8386,86.4445Z"/><path class="cls-3" d="M104.5123,92.262h0a.7151.7151,0,0,1-.7118-.7208h0a.72.72,0,0,1,.7136-.7227h0a.7151.7151,0,0,1,.7118.7209h0A.7194.7194,0,0,1,104.5123,92.262Z"/><path class="cls-3" d="M95.0911,86.6811h0a.7151.7151,0,0,1-.7118-.7208h0a.7194.7194,0,0,1,.7136-.7226h0a.7151.7151,0,0,1,.7118.7208h0A.7194.7194,0,0,1,95.0911,86.6811Z"/></g><g class="cls-1"><polyline class="cls-2" points="169.93 88.904 173.27 83.205 176.367 88.846"/><polyline class="cls-2" points="166.95 94.327 163.837 99.807 176.327 99.791 173.098 105.689 169.883 99.799 166.95 94.327 179.247 94.311 176.327 99.791 169.883 99.799"/><polyline class="cls-2" points="179.264 94.121 182.373 99.783 176.107 99.791"/><polyline class="cls-2" points="166.872 94.465 169.93 88.739 176.155 88.731 176.363 88.731 182.387 88.723 179.279 94.401"/><polyline class="cls-2" points="170.115 88.739 163.851 88.747 166.945 94.603"/><path class="cls-2" d="M173.277,83.6188h0a.7151.7151,0,0,1-.7118-.7208h0a.7194.7194,0,0,1,.7136-.7226h0a.7151.7151,0,0,1,.7118.7208h0A.7194.7194,0,0,1,173.277,83.6188Z"/><path class="cls-2" d="M163.558,89.2988h0a.7151.7151,0,0,1-.7118-.7208h0a.7194.7194,0,0,1,.7136-.7226h0a.715.715,0,0,1,.7117.7208h0A.7193.7193,0,0,1,163.558,89.2988Z"/><path class="cls-2" d="M182.7145,89.2745h0a.7151.7151,0,0,1-.7118-.7208h0a.72.72,0,0,1,.7136-.7227h0a.7151.7151,0,0,1,.7118.7209h0A.7194.7194,0,0,1,182.7145,89.2745Z"/><path class="cls-2" d="M182.5386,100.6255h0a.7151.7151,0,0,1-.7118-.7208h0a.72.72,0,0,1,.7136-.7227h0a.7152.7152,0,0,1,.7118.7209h0A.7194.7194,0,0,1,182.5386,100.6255Z"/><path class="cls-2" d="M163.7054,100.6494h0a.7151.7151,0,0,1-.7118-.7208h0a.7194.7194,0,0,1,.7136-.7226h0a.7151.7151,0,0,1,.7118.7208h0A.7194.7194,0,0,1,163.7054,100.6494Z"/></g><g class="cls-1"><polyline class="cls-3" points="146.681 74.334 150.028 69.323 153.118 74.277"/><polyline class="cls-3" points="153.078 85.09 149.849 91.119 146.489 85.099"/><polyline class="cls-3" points="143.702 79.757 141.333 85.357 146.708 85.23"/><polyline class="cls-3" points="156.015 79.552 158.388 85.215 152.858 85.222"/><polyline class="cls-3" points="152.872 74.162 158.577 74.155 156.03 79.832"/><polyline class="cls-3" points="146.867 74.17 141.184 74.446 143.697 80.034"/><path class="cls-3" d="M150.0282,69.05h0a.715.715,0,0,1-.7117-.7208h0a.7194.7194,0,0,1,.7136-.7226h0a.715.715,0,0,1,.7117.7208h0A.7193.7193,0,0,1,150.0282,69.05Z"/><path class="cls-3" d="M140.3091,74.73h0a.715.715,0,0,1-.7117-.7208h0a.7193.7193,0,0,1,.7135-.7226h0a.715.715,0,0,1,.7118.7208h0A.7194.7194,0,0,1,140.3091,74.73Z"/><path class="cls-3" d="M159.4661,74.3452h0a.7151.7151,0,0,1-.7118-.7208h0a.7194.7194,0,0,1,.7136-.7226h0a.7151.7151,0,0,1,.7118.7208h0A.7194.7194,0,0,1,159.4661,74.3452Z"/><path class="cls-3" d="M159.2033,86.4445h0a.715.715,0,0,1-.7117-.7208h0a.7194.7194,0,0,1,.7135-.7227h0a.7151.7151,0,0,1,.7117.7209h0A.7194.7194,0,0,1,159.2033,86.4445Z"/><path class="cls-3" d="M149.877,92.262h0a.7151.7151,0,0,1-.7118-.7208h0a.72.72,0,0,1,.7136-.7227h0a.7151.7151,0,0,1,.7118.7209h0A.7194.7194,0,0,1,149.877,92.262Z"/><path class="cls-3" d="M140.4558,86.6811h0a.7151.7151,0,0,1-.7118-.7208h0a.7194.7194,0,0,1,.7136-.7226h0a.7151.7151,0,0,1,.7118.7208h0A.7194.7194,0,0,1,140.4558,86.6811Z"/></g><g class="cls-1"><polyline class="cls-2" points="217.192 87.694 220.532 81.995 223.63 87.636"/><polyline class="cls-2" points="214.213 93.117 211.099 98.597 223.59 98.581 220.36 104.479 217.146 98.589 214.213 93.117 226.51 93.101 223.59 98.581 217.146 98.589"/><polyline class="cls-2" points="226.527 92.911 229.636 98.573 223.37 98.581"/><polyline class="cls-2" points="214.135 93.255 217.192 87.529 223.417 87.521 223.626 87.521 229.65 87.513 226.541 93.191"/><polyline class="cls-2" points="217.378 87.529 211.113 87.537 214.208 93.393"/><path class="cls-2" d="M220.54,82.4088h0a.7151.7151,0,0,1-.7118-.7208v0a.7194.7194,0,0,1,.7136-.7226h0a.7151.7151,0,0,1,.7118.7208h0A.72.72,0,0,1,220.54,82.4088Z"/><path class="cls-2" d="M210.8205,88.0888h0a.7152.7152,0,0,1-.7118-.7209h0a.7194.7194,0,0,1,.7136-.7226h0a.7151.7151,0,0,1,.7118.7208h0A.72.72,0,0,1,210.8205,88.0888Z"/><path class="cls-2" d="M229.977,88.0644h0a.7151.7151,0,0,1-.7118-.7208h0a.7194.7194,0,0,1,.7136-.7226h0a.7151.7151,0,0,1,.7118.7208h0A.7194.7194,0,0,1,229.977,88.0644Z"/><path class="cls-2" d="M229.8011,99.4154h0a.7149.7149,0,0,1-.7117-.7208h0a.7193.7193,0,0,1,.7135-.7226h0a.7151.7151,0,0,1,.7118.7208h0A.7194.7194,0,0,1,229.8011,99.4154Z"/><path class="cls-2" d="M210.9679,99.4394h0a.7152.7152,0,0,1-.7118-.7209h0a.7194.7194,0,0,1,.7136-.7226h0a.7151.7151,0,0,1,.7118.7208h0A.72.72,0,0,1,210.9679,99.4394Z"/></g><g class="cls-1"><polyline class="cls-3" points="193.884 73.124 197.231 68.113 200.322 73.066"/><polyline class="cls-3" points="200.282 83.88 197.052 89.909 193.692 83.888"/><polyline class="cls-3" points="190.905 78.547 188.536 84.147 193.912 84.02"/><polyline class="cls-3" points="203.219 78.342 205.592 84.005 200.062 84.012"/><polyline class="cls-3" points="200.075 72.952 205.781 72.945 203.233 78.622"/><polyline class="cls-3" points="194.07 72.96 188.387 73.236 190.9 78.824"/><path class="cls-3" d="M197.2315,67.84h0a.7151.7151,0,0,1-.7117-.7209h0a.7193.7193,0,0,1,.7135-.7226h0a.7151.7151,0,0,1,.7118.7208h0A.72.72,0,0,1,197.2315,67.84Z"/><path class="cls-3" d="M187.5125,73.52h0a.7152.7152,0,0,1-.7118-.7209h0a.7194.7194,0,0,1,.7136-.7226h0a.7151.7151,0,0,1,.7118.7208h0A.72.72,0,0,1,187.5125,73.52Z"/><path class="cls-3" d="M206.67,73.1352h0a.7152.7152,0,0,1-.7118-.7209h0a.7194.7194,0,0,1,.7136-.7226h0a.7151.7151,0,0,1,.7118.7208h0A.72.72,0,0,1,206.67,73.1352Z"/><path class="cls-3" d="M206.4067,85.2345h0a.7152.7152,0,0,1-.7118-.7209h0a.7194.7194,0,0,1,.7136-.7226h0a.7151.7151,0,0,1,.7118.7208h0A.72.72,0,0,1,206.4067,85.2345Z"/><path class="cls-3" d="M197.08,91.0519h0a.7151.7151,0,0,1-.7118-.7208h0a.7194.7194,0,0,1,.7136-.7226h0a.7151.7151,0,0,1,.7118.7208h0A.7194.7194,0,0,1,197.08,91.0519Z"/><path class="cls-3" d="M187.6592,85.4711h0a.7152.7152,0,0,1-.7118-.7209h0a.7194.7194,0,0,1,.7136-.7226h0a.7151.7151,0,0,1,.7118.7208h0A.72.72,0,0,1,187.6592,85.4711Z"/></g><g class="cls-1"><polyline class="cls-2" points="262.498 87.694 265.838 81.995 268.935 87.636"/><polyline class="cls-2" points="259.519 93.117 256.405 98.597 268.895 98.581 265.666 104.479 262.451 98.589 259.519 93.117 271.815 93.101 268.895 98.581 262.451 98.589"/><polyline class="cls-2" points="271.832 92.911 274.942 98.573 268.675 98.581"/><polyline class="cls-2" points="259.44 93.255 262.498 87.529 268.723 87.521 268.931 87.521 274.955 87.513 271.847 93.191"/><polyline class="cls-2" points="262.684 87.529 256.419 87.537 259.513 93.393"/><path class="cls-2" d="M265.8451,82.4088h0a.715.715,0,0,1-.7117-.7208v0a.7194.7194,0,0,1,.7136-.7226h0a.715.715,0,0,1,.7117.7208h0A.7194.7194,0,0,1,265.8451,82.4088Z"/><path class="cls-2" d="M256.126,88.0888h0a.7151.7151,0,0,1-.7117-.7209h0a.7193.7193,0,0,1,.7135-.7226h0a.7151.7151,0,0,1,.7118.7208h0A.72.72,0,0,1,256.126,88.0888Z"/><path class="cls-2" d="M275.2826,88.0644h0a.7151.7151,0,0,1-.7118-.7208h0a.7194.7194,0,0,1,.7136-.7226h0a.715.715,0,0,1,.7117.7208h0A.7193.7193,0,0,1,275.2826,88.0644Z"/><path class="cls-2" d="M275.1067,99.4154h0a.715.715,0,0,1-.7118-.7208h0a.7194.7194,0,0,1,.7136-.7226h0a.7151.7151,0,0,1,.7118.7208h0A.7194.7194,0,0,1,275.1067,99.4154Z"/><path class="cls-2" d="M256.2735,99.4394h0a.7152.7152,0,0,1-.7118-.7209h0a.7194.7194,0,0,1,.7136-.7226h0a.715.715,0,0,1,.7117.7208h0A.7194.7194,0,0,1,256.2735,99.4394Z"/></g><g class="cls-1"><polyline class="cls-3" points="239.249 73.124 242.596 68.113 245.686 73.066"/><polyline class="cls-3" points="245.647 83.88 242.417 89.909 239.057 83.888"/><polyline class="cls-3" points="236.27 78.547 233.901 84.147 239.276 84.02"/><polyline class="cls-3" points="248.583 78.342 250.956 84.005 245.426 84.012"/><polyline class="cls-3" points="245.44 72.952 251.145 72.945 248.598 78.622"/><polyline class="cls-3" points="239.435 72.96 233.752 73.236 236.265 78.824"/><path class="cls-3" d="M242.5962,67.84h0a.7151.7151,0,0,1-.7117-.7209h0a.7193.7193,0,0,1,.7135-.7226h0a.7151.7151,0,0,1,.7118.7208h0A.72.72,0,0,1,242.5962,67.84Z"/><path class="cls-3" d="M232.8772,73.52h0a.7152.7152,0,0,1-.7118-.7209h0a.7194.7194,0,0,1,.7136-.7226h0a.7151.7151,0,0,1,.7118.7208h0A.72.72,0,0,1,232.8772,73.52Z"/><path class="cls-3" d="M252.0342,73.1352h0a.7152.7152,0,0,1-.7118-.7209h0a.7194.7194,0,0,1,.7136-.7226h0a.7151.7151,0,0,1,.7118.7208h0A.72.72,0,0,1,252.0342,73.1352Z"/><path class="cls-3" d="M251.7714,85.2345h0a.7152.7152,0,0,1-.7118-.7209h0a.7194.7194,0,0,1,.7136-.7226h0a.7151.7151,0,0,1,.7118.7208h0A.72.72,0,0,1,251.7714,85.2345Z"/><path class="cls-3" d="M242.4451,91.0519h0a.7151.7151,0,0,1-.7118-.7208h0a.7194.7194,0,0,1,.7136-.7226h0a.7151.7151,0,0,1,.7118.7208h0A.7194.7194,0,0,1,242.4451,91.0519Z"/><path class="cls-3" d="M233.0239,85.4711h0a.7152.7152,0,0,1-.7118-.7209h0a.7194.7194,0,0,1,.7136-.7226h0a.7151.7151,0,0,1,.7118.7208h0A.72.72,0,0,1,233.0239,85.4711Z"/></g><g class="cls-1"><polyline class="cls-2" points="310.584 86.629 313.924 80.93 317.021 86.571"/><polyline class="cls-2" points="307.605 92.052 304.491 97.532 316.981 97.516 313.752 103.414 310.537 97.524 307.605 92.052 319.901 92.036 316.981 97.516 310.537 97.524"/><polyline class="cls-2" points="319.918 91.846 323.028 97.508 316.761 97.516"/><polyline class="cls-2" points="307.526 92.19 310.584 86.464 316.809 86.456 317.017 86.456 323.041 86.448 319.933 92.126"/><polyline class="cls-2" points="310.77 86.464 304.505 86.472 307.599 92.328"/><path class="cls-2" d="M313.9311,81.3438h0a.7152.7152,0,0,1-.7118-.7209h0a.7194.7194,0,0,1,.7136-.7226h0a.7151.7151,0,0,1,.7118.7208h0A.72.72,0,0,1,313.9311,81.3438Z"/><path class="cls-2" d="M304.2121,87.0237h0a.7151.7151,0,0,1-.7118-.7208h0a.7194.7194,0,0,1,.7136-.7226h0a.7151.7151,0,0,1,.7118.7208h0A.7194.7194,0,0,1,304.2121,87.0237Z"/><path class="cls-2" d="M323.3686,86.9994h0a.7151.7151,0,0,1-.7118-.7208h0a.72.72,0,0,1,.7136-.7227h0a.7152.7152,0,0,1,.7118.7209h0A.7194.7194,0,0,1,323.3686,86.9994Z"/><path class="cls-2" d="M323.1927,98.35h0a.715.715,0,0,1-.7117-.7208h0a.7193.7193,0,0,1,.7135-.7226h0a.7151.7151,0,0,1,.7118.7208h0A.7194.7194,0,0,1,323.1927,98.35Z"/><path class="cls-2" d="M304.36,98.3744h0a.7152.7152,0,0,1-.7118-.7209h0a.7194.7194,0,0,1,.7136-.7226h0a.7151.7151,0,0,1,.7118.7208h0A.72.72,0,0,1,304.36,98.3744Z"/></g><g class="cls-1"><polyline class="cls-3" points="287.276 72.059 290.623 67.048 293.713 72.001"/><polyline class="cls-3" points="293.673 82.815 290.444 88.844 287.084 82.823"/><polyline class="cls-3" points="284.297 77.482 281.928 83.082 287.303 82.955"/><polyline class="cls-3" points="296.61 77.277 298.983 82.94 293.453 82.947"/><polyline class="cls-3" points="293.467 71.887 299.172 71.88 296.625 77.557"/><polyline class="cls-3" points="287.462 71.895 281.779 72.171 284.291 77.759"/><path class="cls-3" d="M290.6231,66.7744h0a.715.715,0,0,1-.7117-.7208h0a.7193.7193,0,0,1,.7135-.7226h0a.7151.7151,0,0,1,.7118.7208h0A.7194.7194,0,0,1,290.6231,66.7744Z"/><path class="cls-3" d="M280.9041,72.4544h0a.7151.7151,0,0,1-.7118-.7208h0a.7194.7194,0,0,1,.7136-.7226h0a.7151.7151,0,0,1,.7118.7208h0A.7194.7194,0,0,1,280.9041,72.4544Z"/><path class="cls-3" d="M300.0611,72.07h0a.7151.7151,0,0,1-.7118-.7208h0a.7194.7194,0,0,1,.7136-.7226h0a.7151.7151,0,0,1,.7118.7208h0A.7194.7194,0,0,1,300.0611,72.07Z"/><path class="cls-3" d="M299.7983,84.1694h0a.7151.7151,0,0,1-.7118-.7208h0a.7194.7194,0,0,1,.7136-.7226h0a.7151.7151,0,0,1,.7118.7208h0A.7194.7194,0,0,1,299.7983,84.1694Z"/><path class="cls-3" d="M290.472,89.9869h0a.7151.7151,0,0,1-.7118-.7208h0a.72.72,0,0,1,.7136-.7227h0a.7152.7152,0,0,1,.7118.7209h0A.7194.7194,0,0,1,290.472,89.9869Z"/><path class="cls-3" d="M281.0508,84.406h0a.7151.7151,0,0,1-.7118-.7208h0a.7194.7194,0,0,1,.7136-.7226h0a.7151.7151,0,0,1,.7118.7208h0A.7194.7194,0,0,1,281.0508,84.406Z"/></g><g class="cls-1"><polyline class="cls-2" points="355.889 86.629 359.229 80.93 362.327 86.571"/><polyline class="cls-2" points="352.91 92.052 349.796 97.532 362.287 97.516 359.057 103.414 355.843 97.524 352.91 92.052 365.207 92.036 362.287 97.516 355.843 97.524"/><polyline class="cls-2" points="365.224 91.846 368.333 97.508 362.067 97.516"/><polyline class="cls-2" points="352.832 92.19 355.889 86.464 362.114 86.456 362.323 86.456 368.347 86.448 365.238 92.126"/><polyline class="cls-2" points="356.075 86.464 349.81 86.472 352.905 92.328"/><path class="cls-2" d="M359.2366,81.3438h0a.7151.7151,0,0,1-.7117-.7209h0a.7194.7194,0,0,1,.7136-.7226h0a.715.715,0,0,1,.7117.7208h0A.72.72,0,0,1,359.2366,81.3438Z"/><path class="cls-2" d="M349.5176,87.0237h0a.715.715,0,0,1-.7117-.7208h0a.7193.7193,0,0,1,.7135-.7226h0a.7151.7151,0,0,1,.7118.7208h0A.7194.7194,0,0,1,349.5176,87.0237Z"/><path class="cls-2" d="M368.6742,86.9994h0a.7151.7151,0,0,1-.7118-.7208h0a.72.72,0,0,1,.7136-.7227h0a.7151.7151,0,0,1,.7117.7209h0A.7193.7193,0,0,1,368.6742,86.9994Z"/><path class="cls-2" d="M368.4983,98.35h0a.7151.7151,0,0,1-.7118-.7208h0a.7194.7194,0,0,1,.7136-.7226h0a.7151.7151,0,0,1,.7118.7208h0A.7194.7194,0,0,1,368.4983,98.35Z"/><path class="cls-2" d="M349.6651,98.3744h0a.7152.7152,0,0,1-.7118-.7209h0a.7194.7194,0,0,1,.7136-.7226h0a.715.715,0,0,1,.7117.7208h0A.7194.7194,0,0,1,349.6651,98.3744Z"/></g><g class="cls-1"><polyline class="cls-3" points="332.64 72.059 335.987 67.048 339.078 72.001"/><polyline class="cls-3" points="339.038 82.815 335.809 88.844 332.448 82.823"/><polyline class="cls-3" points="329.661 77.482 327.293 83.082 332.668 82.955"/><polyline class="cls-3" points="341.975 77.277 344.348 82.94 338.818 82.947"/><polyline class="cls-3" points="338.832 71.887 344.537 71.88 341.989 77.557"/><polyline class="cls-3" points="332.826 71.895 327.144 72.171 329.656 77.759"/><path class="cls-3" d="M335.9878,66.7744h0a.715.715,0,0,1-.7117-.7208h0a.7193.7193,0,0,1,.7135-.7226h0a.7151.7151,0,0,1,.7118.7208h0A.7194.7194,0,0,1,335.9878,66.7744Z"/><path class="cls-3" d="M326.2688,72.4544h0a.7151.7151,0,0,1-.7118-.7208h0a.7194.7194,0,0,1,.7136-.7226h0a.7151.7151,0,0,1,.7118.7208h0A.7194.7194,0,0,1,326.2688,72.4544Z"/><path class="cls-3" d="M345.4258,72.07h0a.7151.7151,0,0,1-.7118-.7208h0a.7194.7194,0,0,1,.7136-.7226h0a.7151.7151,0,0,1,.7118.7208h0A.7194.7194,0,0,1,345.4258,72.07Z"/><path class="cls-3" d="M345.163,84.1694h0a.7151.7151,0,0,1-.7118-.7208h0a.7194.7194,0,0,1,.7136-.7226h0a.7151.7151,0,0,1,.7118.7208h0A.7194.7194,0,0,1,345.163,84.1694Z"/><path class="cls-3" d="M335.8367,89.9869h0a.7151.7151,0,0,1-.7118-.7208h0a.72.72,0,0,1,.7136-.7227h0a.7152.7152,0,0,1,.7118.7209h0A.7194.7194,0,0,1,335.8367,89.9869Z"/><path class="cls-3" d="M326.4155,84.406h0a.7151.7151,0,0,1-.7118-.7208h0a.7194.7194,0,0,1,.7136-.7226h0a.7151.7151,0,0,1,.7118.7208h0A.7194.7194,0,0,1,326.4155,84.406Z"/></g></g></g></svg>